
    <svg width="800" height="400" viewBox="0 0 800 400" xmlns="http://www.w3.org/2000/svg">
      <defs>
        <clipPath id="roundedCorners">
          <rect x="0" y="0" width="800" height="400" rx="14" ry="14" />
        </clipPath>
      </defs>
      <g clip-path="url(#roundedCorners)">
        
      <defs>
        <linearGradient id="bgGrad" x1="0%" y1="0%" x2="0%" y2="100%">
          <stop offset="0%" style="stop-color:#773c1d;stop-opacity:1" />
          <stop offset="50%" style="stop-color:#682d0e;stop-opacity:1" />
          <stop offset="100%" style="stop-color:#541900;stop-opacity:1" />
        </linearGradient>
        <linearGradient id="sandGrad" x1="0%" y1="0%" x2="0%" y2="100%">
          <stop offset="0%" style="stop-color:#27231b;stop-opacity:1" />
          <stop offset="100%" style="stop-color:#000000;stop-opacity:1" />
        </linearGradient>
        <linearGradient id="reflectionGrad" x1="0%" y1="0%" x2="0%" y2="100%">
          <stop offset="0%" style="stop-color:#ffffff;stop-opacity:0.15" />
          <stop offset="100%" style="stop-color:#ffffff;stop-opacity:0" />
        </linearGradient>
      </defs>
      <rect width="100%" height="100%" fill="url(#bgGrad)" />
    
        
    <path d="M0,375 Q80,365 160,372 Q240,362 320,375 Q400,368 480,372 Q560,365 640,375 Q720,370 800,372 L800,400 L0,400 Z" fill="url(#sandGrad)" />
    <ellipse cx="100" cy="380" rx="30" ry="5" fill="#130f07" opacity="0.4" />
    <ellipse cx="500" cy="378" rx="45" ry="6" fill="#130f07" opacity="0.3" />
    <ellipse cx="700" cy="382" rx="25" ry="4" fill="#130f07" opacity="0.4" />
  
      <g transform="translate(80, 340)" opacity="0.9">
        <g>
          <animateTransform attributeName="transform" type="translate" values="0,0;-6,2;0,0;6,-2;0,0" dur="10s" repeatCount="indefinite"></animateTransform>
          <path d="M0,60 Q-18,35 -8,5 Q2,-25 -12,-60" stroke="#8b0000" stroke-width="3" fill="none"></path>
          <ellipse cx="-10" cy="-30" rx="10" ry="4" fill="#b22222" opacity="0.8" transform="matrix(0.766044, -0.642788, 0.642788, 0.766044, 15.33034, -13.216007)"></ellipse>
          <ellipse cx="-12" cy="-55" rx="10" ry="3.5" fill="#b22222" opacity="0.8" transform="matrix(0.866025, -0.5, 0.5, 0.866025, 19.569353, -13.055357)"></ellipse>
          <ellipse cx="-6" cy="5" rx="9" ry="3.5" fill="#cc2222" opacity="0.75" transform="matrix(0.573576, -0.819152, 0.819152, 0.573576, -11.956587, 0.444675)"></ellipse>
          <ellipse cx="-2" cy="25" rx="7" ry="2.5" fill="#cc2222" opacity="0.6" transform="matrix(0.34202, -0.939693, 0.939693, 0.34202, -36.56551, 22.408265)"></ellipse>
        </g>
        <g>
          <animateTransform attributeName="transform" type="translate" values="0,0;4,1;0,0;-4,-1;0,0" dur="9.7s" repeatCount="indefinite"></animateTransform>
          <path d="M0,60 Q8,32 2,0 Q-6,-30 8,-65" stroke="#a81010" stroke-width="3" fill="none"></path>
          <ellipse cx="5" cy="-35" rx="11" ry="4" fill="#cc2222" opacity="0.8" transform="matrix(0.866025, 0.5, -0.5, 0.866025, -13.602658, -5.575372)"></ellipse>
          <ellipse cx="8" cy="-58" rx="11" ry="4" fill="#cc2222" opacity="0.8" transform="matrix(0.906308, 0.422618, -0.422618, 0.906308, -16.38523, -10.625938)"></ellipse>
          <ellipse cx="10" cy="10" rx="8" ry="3" fill="#b22222" opacity="0.7" transform="matrix(0.5, 0.866025, -0.866025, 0.5, 10.432786, -1.124387)"></ellipse>
        </g>
        <g>
          <animateTransform attributeName="transform" type="translate" values="0,0;-4,-1;0,0;4,1;0,0" dur="9.3s" repeatCount="indefinite"></animateTransform>
          <path d="M0,60 Q22,40 18,15 Q14,-10 28,-40" stroke="#c41e1e" stroke-width="3" fill="none"></path>
          <ellipse cx="20" cy="-15" rx="10" ry="3.5" fill="#b22222" opacity="0.8" transform="matrix(0.573576, 0.819152, -0.819152, 0.573576, 7.767896, -40.069443)"></ellipse>
          <ellipse cx="20" cy="-15" rx="8.05" ry="2.818" fill="#b22222" opacity="0.8" transform="matrix(0.573576, 0.819152, -0.819152, 0.573576, -0.916156, -16.98872)" style="stroke-width: 1;"></ellipse>
        </g>
      </g>

      <g transform="translate(280, 360)" opacity="0.85">
        <g>
          <animateTransform attributeName="transform" type="translate" values="0,0;-4,1;0,0;4,-1;0,0" dur="9s" repeatCount="indefinite"></animateTransform>
          <path d="M0,40 Q-14,20 -6,0 Q2,-18 -10,-38" stroke="#991111" stroke-width="3" fill="none"></path>
          <ellipse cx="-8" cy="-18" rx="9" ry="3.5" fill="#b22222" opacity="0.8" transform="matrix(0.766044, -0.642788, 0.642788, 0.766044, 8.412462, -7.900607)"></ellipse>
          <ellipse cx="-10" cy="-32" rx="9" ry="3.5" fill="#b22222" opacity="0.8" transform="matrix(0.819152, -0.573576, 0.573576, 0.819152, 11.544216, -12.249345)"></ellipse>
          <ellipse cx="-5" cy="5" rx="8" ry="3" fill="#b22222" opacity="0.75" transform="matrix(0.642788, -0.766044, 0.766044, 0.642788, -12.350708, 2.677772)"></ellipse>
        </g>
        <g>
          <animateTransform attributeName="transform" type="translate" values="0,0;3,1;0,0;-3,-1;0,0" dur="9.2s" repeatCount="indefinite"></animateTransform>
          <path d="M0,40 Q12,22 8,4 Q4,-14 16,-34" stroke="#bb1a1a" stroke-width="3" fill="none"></path>
          <ellipse cx="10" cy="-16" rx="9" ry="3.5" fill="#cc2222" opacity="0.8" transform="matrix(0.766044, 0.642788, -0.642788, 0.766044, -3.949552, -6.175687)"></ellipse>
          <ellipse cx="14" cy="-28" rx="8" ry="3" fill="#cc2222" opacity="0.8" transform="matrix(0.707107, 0.707107, -0.707107, 0.707107, -10.102289, -18.660119)"></ellipse>
          <ellipse cx="8" cy="8" rx="7" ry="2.5" fill="#cc2222" opacity="0.7" transform="matrix(0.573576, 0.819152, -0.819152, 0.573576, 13.881942, 2.17457)"></ellipse>
        </g>
      </g>

      <g transform="translate(720, 335)" opacity="0.9">
        <g>
          <animateTransform attributeName="transform" type="translate" values="0,0;-5,2;0,0;5,-2;0,0" dur="8.5s" repeatCount="indefinite"></animateTransform>
          <path d="M0,65 Q-20,40 -10,10 Q0,-20 -15,-60" stroke="#8b0000" stroke-width="3" fill="none"></path>
          <ellipse cx="-12" cy="-30" rx="11" ry="4" fill="#b22222" opacity="0.8" transform="matrix(0.766044, -0.642788, 0.642788, 0.766044, 13.678066, -14.452306)"></ellipse>
          <ellipse cx="-15" cy="-55" rx="10" ry="3.5" fill="#b22222" opacity="0.8" transform="matrix(0.819152, -0.573576, 0.573576, 0.819152, 22.398344, -17.710858)"></ellipse>
          <ellipse cx="-8" cy="5" rx="9" ry="3" fill="#cc2222" opacity="0.75" transform="matrix(0.642788, -0.766044, 0.766044, 0.642788, -12.284116, 0.974107)"></ellipse>
          <ellipse cx="-2" cy="25" rx="7" ry="2.5" fill="#cc2222" opacity="0.6" transform="matrix(0.422618, -0.906308, 0.906308, 0.422618, -37.243349, 26.612441)"></ellipse>
        </g>
        <g>
          <animateTransform attributeName="transform" type="translate" values="0,0;4,1;0,0;-4,-1;0,0" dur="8s" repeatCount="indefinite"></animateTransform>
          <path d="M0,65 Q10,38 4,5 Q-2,-28 12,-62" stroke="#a81010" stroke-width="3" fill="none"></path>
          <ellipse cx="8" cy="-32" rx="12" ry="4" fill="#cc2222" opacity="0.8" transform="matrix(0.866025, 0.5, -0.5, 0.866025, -10.731051, -6.608328)"></ellipse>
          <ellipse cx="10" cy="-57" rx="11" ry="4" fill="#cc2222" opacity="0.8" transform="matrix(0.866025, 0.5, -0.5, 0.866025, -18.206313, -12.07693)"></ellipse>
          <ellipse cx="12" cy="8" rx="8" ry="3" fill="#b22222" opacity="0.7" transform="matrix(0.5, 0.866025, -0.866025, 0.5, 8.731052, -2.195153)"></ellipse>
        </g>
        <g>
          <animateTransform attributeName="transform" type="translate" values="0,0;-3,-1;0,0;3,1;0,0" dur="7.8s" repeatCount="indefinite"></animateTransform>
          <path d="M0,65 Q25,42 20,15 Q15,-12 30,-45" stroke="#c41e1e" stroke-width="3" fill="none"></path>
          <ellipse cx="22" cy="-12" rx="10" ry="3.5" fill="#b22222" opacity="0.8" transform="matrix(0.573576, 0.819152, -0.819152, 0.573576, 1.510176, -14.184499)"></ellipse>
          <ellipse cx="28" cy="-32" rx="9" ry="3" fill="#cc2222" opacity="0.8" transform="matrix(0.766044, 0.642788, -0.642788, 0.766044, -7.303014, -32.479885)"></ellipse>
        </g>
      </g>

      <g transform="translate(550, 358)">
        <ellipse cx="-25.372" cy="20.463" rx="17.638" ry="3.207" fill="#000" opacity=".12" style="stroke-width: 1;"></ellipse>
        <line x1="-20.372" y1="19.653" x2="-20.372" y2="4.653" stroke="#2d6a1a" stroke-width="2.5" style="stroke-width: 2.5;"></line>
        <line x1="-20.372" y1="13.653" x2="-32.372" y2="3.653" stroke="#2d6a1a" stroke-width="2" style="stroke-width: 2;"></line>
        <line x1="-20.372" y1="13.653" x2="-8.372" y2="3.653" stroke="#2d6a1a" stroke-width="2" style="stroke-width: 2;"></line>
        <line x1="-20.372" y1="9.653" x2="-27.372" y2="-2.347" stroke="#2d6a1a" stroke-width="1.8" style="stroke-width: 1.8;"></line>
        <line x1="-20.372" y1="9.653" x2="-12.372" y2="-2.347" stroke="#2d6a1a" stroke-width="1.8" style="stroke-width: 1.8;"></line>
        <line x1="-32.372" y1="3.653" x2="-38.372" y2="-4.347" stroke="#2d6a1a" stroke-width="1.5" style="stroke-width: 1.5;"></line>
        <line x1="-32.372" y1="3.653" x2="-27.372" y2="-5.347" stroke="#2d6a1a" stroke-width="1.5" style="stroke-width: 1.5;"></line>
        <line x1="-8.372" y1="3.653" x2="-2.372" y2="-4.347" stroke="#2d6a1a" stroke-width="1.5" style="stroke-width: 1.5;"></line>
        <line x1="-8.372" y1="3.653" x2="-13.372" y2="-5.347" stroke="#2d6a1a" stroke-width="1.5" style="stroke-width: 1.5;"></line>
        <ellipse cx="-20.372" cy="2.653" rx="7" ry="5" fill="#3a8c22" opacity="0.9" style="stroke-width: 1;">
          <animate attributeName="rx" values="7;8;7" dur="3s" repeatCount="indefinite"></animate>
        </ellipse>
        <ellipse cx="-33.372" cy="0.653" rx="6" ry="4.5" fill="#4aa030" opacity="0.9" style="stroke-width: 1;">
          <animate attributeName="rx" values="6;7;6" dur="3.3s" repeatCount="indefinite"></animate>
        </ellipse>
        <ellipse cx="-7.372" cy="0.653" rx="6" ry="4.5" fill="#3a8c22" opacity="0.9" style="stroke-width: 1;">
          <animate attributeName="rx" values="6;7;6" dur="2.8s" repeatCount="indefinite"></animate>
        </ellipse>
        <ellipse cx="-39.372" cy="-6.347" rx="5" ry="4" fill="#4aa030" opacity="0.85" style="stroke-width: 1;">
          <animate attributeName="rx" values="5;6;5" dur="3.5s" repeatCount="indefinite"></animate>
        </ellipse>
        <ellipse cx="-1.372" cy="-6.347" rx="5" ry="4" fill="#3a8c22" opacity="0.85" style="stroke-width: 1;">
          <animate attributeName="rx" values="5;6;5" dur="3.1s" repeatCount="indefinite"></animate>
        </ellipse>
        <ellipse cx="-27.372" cy="-5.347" rx="5.5" ry="4" fill="#55b535" opacity="0.85" style="stroke-width: 1;">
          <animate attributeName="rx" values="5.5;6.5;5.5" dur="2.9s" repeatCount="indefinite"></animate>
        </ellipse>
        <ellipse cx="-12.372" cy="-5.347" rx="5.5" ry="4" fill="#4aa030" opacity="0.85" style="stroke-width: 1;">
          <animate attributeName="rx" values="5.5;6.5;5.5" dur="3.4s" repeatCount="indefinite"></animate>
        </ellipse>
      </g>
    
    <g transform="translate(420, 345)">
      <ellipse cx="19.559" cy="33.119" rx="30.77" ry="8.951" fill="#000" opacity=".15" style="stroke-width:1"/>
      <g transform="rotate(-12 -262.508 310.172)scale(.42693)">
        <rect x="461.538" y="279.895" width="50.728" height="145.822" transform="rotate(-72.058 -254.114 142.42)" rx="25.364" ry="25.364" style="transform-box:fill-box;transform-origin:50% 50%" fill="#5a422d"/>
        <circle cx="220.039" cy="224.351" style="fill:#b28760;transform-box:fill-box;transform-origin:50% 50%" r="23.685"/>
        <circle cx="220.341" cy="224.172" style="stroke-width:1;fill:#a27953;transform-origin:220.341px 224.172px" r="21.362"/>
        <circle cx="220.592" cy="224.372" style="fill:#b28760;stroke-width:1;transform-origin:220.592px 224.372px" r="19.185"/>
        <circle cx="220.381" cy="224.365" style="stroke-width:1;fill:#a27953;transform-origin:220.381px 224.365px" r="16.78"/>
        <circle cx="220.411" cy="224.44" style="fill:#b28760;stroke-width:1;transform-origin:220.411px 224.44px" r="14.4"/>
        <rect x="-2" width="6" height="87.908" rx="3" transform="rotate(27.193 -123.379 464.595)skewX(-.046)" style="stroke-width:1;fill:#3e7a30;transform-origin:1px 43.955px"/>
        <rect x="-2" width="6" height="69.286" rx="3" fill="color(srgb 24.3% 47.8% 18.8%)" transform="rotate(-9.141 840.781 -993.913)" style="stroke-width:1;transform-origin:1px 34.643px"/>
        <path d="M102.796 165.116c-5.066-13.954 3.821-32.974 26.148-41.08 11.162-4.053 24.138-5.12 35.533-3.183 8.994 1.352 9.438 9.937 1.599 19.465-7.838 9.528-20.886 16.087-35.746 19.661-14.558 4.07-24.139 5.12-27.534 5.137" fill="#3f6b3f" style="stroke-width:.949;transform-origin:191.668px 136.027px"/>
        <rect x="-2" width="6" height="52.908" rx="3" transform="rotate(53.707 -46.398 274.325)skewX(-.046)" style="stroke-width:1;fill:#3e7a30;transform-origin:1px 26.455px"/>
        <path d="M250.805 199.9c6.505-7.806 5.205-22.116-7.285-32.525-6.243-5.203-14.349-8.906-22.136-10.307-6.105-1.22-8.385 4.203-5.554 12.16 2.831 7.955 9.707 15.211 18.443 20.965 8.426 6.004 14.35 8.907 16.532 9.707" fill="#3f6b3f" style="stroke-width:.949;transform-origin:280.305px 161.442px"/>
        <path d="M257.642 166.94c9.255-9.6 8.911-28.454-6.449-43.264-7.678-7.403-17.937-13.02-27.995-15.593-7.875-2.177-11.375 4.706-8.424 15.389s11.262 20.831 22.15 29.193c10.46 8.659 17.937 13.021 20.718 14.275" fill="#3f6b3f" style="stroke-width:.949;transform-origin:299.906px 119.402px"/>
        <rect x="-2" width="6" height="52.017" transform="rotate(-3.24 2014.037 -3369.526)skewX(-.047)" style="stroke-width:1;fill:#3e7a30;transform-origin:1px 26.009px" rx="3" ry="3"/>
        <path d="M147.135 111.497c.717-7.086 10.683-12.987 25.485-11.089 7.398.949 15.06 3.589 21.046 7.118 4.772 2.711 2.81 6.434-4.11 8.584-6.919 2.15-16.04 1.808-25.421-.224-9.337-1.75-15.062-3.587-17-4.389" fill="#3f6b3f" style="stroke-width:.949;transform-origin:150.523px 74.885px"/>
        <circle cx="128.214" cy="181.605" style="stroke-width:1;transform-origin:128.214px 181.605px;fill:#432c17" r="4.973"/>
        <ellipse cx="137.793" cy="213.295" rx="7.884" ry="3.137" style="stroke-width:1;fill:#432c17;transform-box:fill-box;transform-origin:317.579% -172.822%" transform="rotate(16.07 -81.48 128.666)skewX(54.832)"/>
      </g>
      <path d="m16.489 12.757-4.577-.232c-.476-.099-1.799.762-.813 1.571l1.418 1.164-7.049 4.331c-.744.411-.081 1.085.663.674l8.449-3.306s-5.255 9.367-5.24 9.714c-.481 1.186.757.745.935.305l7.945-9.169c-.01.001 1.162 4.756 1.537 5.275 1.814 2.519 3.07-2.181 3.075-3.698l-.122-2.67c-.534.17 5.556 5.664 6.692 5.303 1.367 1.173 1.424-3.012-.624-5.545l-2.427-3.034z" style="fill:#316126;transform-box:fill-box;transform-origin:50% 50%" transform="rotate(2.336)"/>
    </g>
    
    <g transform="translate(600, 362)">  
      <ellipse cx="-8.487" cy="22.437" rx="24.75" ry="7.2" fill="#000" opacity=".15" style="stroke-width: 1; transform-origin: -8.487px -13.569px;"></ellipse>
      <rect x="-66.872" y="-105.43" width="25.671" height="5.704" style="stroke-width: 1; fill: rgb(121, 124, 120); transform-origin: -44.299px -122.663px;" transform="matrix(0.096533, -0.99533, 0.99533, 0.096535, 35.811931, 109.093926)" rx="2.053" ry="2.053"></rect>
      <rect x="-66.872" y="-105.43" width="25.671" height="5.704" style="stroke-width: 1; fill: rgb(121, 124, 120); transform-origin: -44.427px -84.983px;" transform="matrix(0.096533, -0.99533, 0.99533, 0.096535, 35.940627, 71.413704)" rx="2.139" ry="2.139"></rect>
      <rect x="-17.246" y="-17.928" width="38.129" height="41.15" style="stroke-width: 1; fill: rgb(80, 80, 80); transform-origin: 0.509px -13.569px;" rx="9.166" ry="9.166" transform="matrix(0.99533, 0.096535, -0.096533, 0.99533, -8.995881, -0.000004)"></rect>
      <rect x="-14.717" y="-54.536" width="33.08" height="50.242" style="fill: rgb(121, 124, 120); transform-origin: 0.509px -13.569px;" transform="matrix(0.99533, 0.096535, -0.096533, 0.99533, -8.995881, -0.000004)"></rect>
      <ellipse cx="1.824" cy="-3.763" rx="16.54" ry="8.588" style="fill: rgb(121, 124, 120); transform-origin: 0.509px -13.569px;" transform="matrix(0.99533, 0.096535, -0.096533, 0.99533, -8.995879, -0.000009)"></ellipse>
      <rect x="-14.819" y="-56.775" width="33.311" height="11.239" style="stroke-width: 1; fill: rgb(80, 80, 80); transform-origin: 0.513px -13.569px;" rx="3.084" ry="3.084" transform="matrix(0.99533, 0.096535, -0.096533, 0.99533, -9.007509, -0.012056)"></rect>
      <rect x="38.53" y="50.333" width="33.08" height="11.239" style="stroke-width: 1; fill: rgb(80, 80, 80); transform-origin: 79.443px 57.065px;" transform="matrix(-0.096533, 0.99533, -0.99533, -0.096535, -87.930104, -70.633588)"></rect>
      <rect x="-8.667" y="19.705" width="14.095" height="4.788" style="stroke-width: 1; fill: rgb(80, 80, 80); transform-origin: -0.509px 13.569px;" transform="matrix(-0.99533, -0.096535, 0.096533, -0.99533, -7.977685, -27.137483)" rx="2.087" ry="2.087"></rect>
      <rect x="9.042" y="-41.972" width="8.495" height="2.379" style="stroke-width: 1; fill: rgb(80, 80, 80); transform-origin: 0.509px -13.569px;" rx="3.245" ry="3.245" transform="matrix(0.99533, 0.096535, -0.096533, 0.99533, -8.995881, -0.000004)"></rect>
      <rect x="-13.741" y="-41.956" width="8.495" height="2.379" style="stroke-width: 1; fill: rgb(80, 80, 80); transform-origin: 0.509px -13.569px;" rx="3.245" ry="3.245" transform="matrix(0.99533, 0.096535, -0.096533, 0.99533, -8.995881, -0.000004)"></rect>
      <path style="fill: none; stroke-width: 3px; stroke: rgb(80, 80, 80); transform-origin: -13.677px -13.569px;" d="M -17.156 -8.557 C -16.958 -13.547 2.118 -11.695 1.92 -6.707"></path>
    </g>
    
      <g>
        <circle cx="119.779" cy="199.491" r="4" fill="#adf" opacity=".6" style="stroke-width:.8">
          <animate attributeName="cy" from="370" to="30" dur="5s" repeatCount="indefinite"/>
          <animate attributeName="opacity" from=".6" to="0" dur="5s" repeatCount="indefinite"/>
        </circle>
        <circle cx="124.779" cy="219.491" r="2.5" fill="#adf" opacity=".5">
          <animate attributeName="cy" from="375" to="40" dur="5.5s" repeatCount="indefinite" begin="0.3s"/>
          <animate attributeName="opacity" from=".5" to="0" dur="5.5s" repeatCount="indefinite" begin="0.3s"/>
        </circle>
        <circle cx="117.779" cy="239.491" r="3" fill="#adf" opacity=".4">
          <animate attributeName="cy" from="380" to="35" dur="4.8s" repeatCount="indefinite" begin="0.6s"/>
          <animate attributeName="opacity" from=".4" to="0" dur="4.8s" repeatCount="indefinite" begin="0.6s"/>
        </circle>
      </g>
      <g>
        <circle cx="380" cy="150" r="3" fill="#adf" opacity="0.5">
          <animate attributeName="cy" from="365" to="45" dur="6s" repeatCount="indefinite" begin="1s" />
          <animate attributeName="opacity" from="0.5" to="0" dur="6s" repeatCount="indefinite" begin="1s" />
        </circle>
        <circle cx="385" cy="180" r="2" fill="#adf" opacity="0.4">
          <animate attributeName="cy" from="372" to="50" dur="5.2s" repeatCount="indefinite" begin="1.5s" />
          <animate attributeName="opacity" from="0.4" to="0" dur="5.2s" repeatCount="indefinite" begin="1.5s" />
        </circle>
      </g>
      <g>
        <circle cx="580" cy="120" r="3.5" fill="#adf" opacity="0.6">
          <animate attributeName="cy" from="360" to="25" dur="4.5s" repeatCount="indefinite" begin="2s" />
          <animate attributeName="opacity" from="0.6" to="0" dur="4.5s" repeatCount="indefinite" begin="2s" />
        </circle>
        <circle cx="575" cy="140" r="2" fill="#adf" opacity="0.4">
          <animate attributeName="cy" from="368" to="35" dur="5s" repeatCount="indefinite" begin="2.3s" />
          <animate attributeName="opacity" from="0.4" to="0" dur="5s" repeatCount="indefinite" begin="2.3s" />
        </circle>
        <circle cx="588" cy="160" r="2.8" fill="#adf" opacity="0.5">
          <animate attributeName="cy" from="375" to="40" dur="5.8s" repeatCount="indefinite" begin="2.6s" />
          <animate attributeName="opacity" from="0.5" to="0" dur="5.8s" repeatCount="indefinite" begin="2.6s" />
        </circle>
      </g>
      <g>
        <circle cx="750" cy="180" r="2.5" fill="#adf" opacity="0.5">
          <animate attributeName="cy" from="370" to="50" dur="6.5s" repeatCount="indefinite" begin="0.8s" />
          <animate attributeName="opacity" from="0.5" to="0" dur="6.5s" repeatCount="indefinite" begin="0.8s" />
        </circle>
      </g>
    

        
    <g opacity="0">

      <animate
        attributeName="opacity"
        from="0"
        to="1"
        dur="1.5s"
        begin="0.5487490561517916s"
        fill="freeze"
      />

      <animateMotion
        dur="43.658327041011944s"
        repeatCount="indefinite"
        begin="0.5487490561517916s"
        calcMode="spline"
        keyTimes="0.0000;0.0833;0.1667;0.2500;0.3333;0.4167;0.5000;0.5833;0.6667;0.7500;0.8333;0.9167;1.0000"
        keySplines="0.2 0.1 0.8 0.9;0.2 0.1 0.8 0.9;0.2 0.1 0.8 0.9;0.2 0.1 0.8 0.9;0.2 0.1 0.8 0.9;0.2 0.1 0.8 0.9;0.2 0.1 0.8 0.9;0.2 0.1 0.8 0.9;0.2 0.1 0.8 0.9;0.2 0.1 0.8 0.9;0.2 0.1 0.8 0.9;0.2 0.1 0.8 0.9"
        path="M 120,85.90627857820206 C 146.4,80.97164958431722 173.6,63.70365160766902 200,50 C 266,67.06022094744958 334,83.89411160897437 400,99.65213865905946 C 466,83.4538125887738 534,73.83858022841122 600,64.45983959639032 C 626.4,51.31137117795932 653.6,68.14799885514475 680,64.45983959639032 C 653.6,64.94515383685214 626.4,79.77244544853077 600,94.0328425528075 C 534,100.84622777927986 466,112.96861053000498 400,102.49376501196087 C 334,81.62713015575864 266,84.63232635525128 200,75.91937843359561 C 173.5967,90.9566085705712 146.3933,82.07778435527753 119.99,85.90627857820206"
      />

      <g>
        <animateTransform
          attributeName="transform"
          type="scale"
          values="1.8445836435054828 1.8445836435054828; 1.8445836435054828 1.8445836435054828; -1.8445836435054828 1.8445836435054828; -1.8445836435054828 1.8445836435054828; 1.8445836435054828 1.8445836435054828"
          keyTimes="0;0.5;0.5;1;1"
          calcMode="discrete"
          dur="43.658327041011944s"
          repeatCount="indefinite"
          begin="0.5487490561517916s"
        />

        <g>
          <animateTransform
            attributeName="transform"
            type="rotate"
            values="0;2;0;-2;0"
            dur="1.6829163520505972s"
            repeatCount="indefinite"
            begin="0.5487490561517916s"
          />
          
    <g>
      <path d="M-9.651-25.643s3.058 2.687 6.095 4.135c3.158 1.508 6.329 1.762 8.329.82 2.551-1.205 3.922 7.353 3.922 7.353 1.088-2.364.634-4.404.3-5.763-.312-1.31-1.18-2.235-2.165-2.666-1.107-.484-2.382-.377-4.092-.024-1.509.308-4.123-.183-6.105-1.554-2.406-1.652-6.284-2.301-6.284-2.301" fill="#fc4b1e" style="stroke-width:1;transform-origin:-112.166px 12.934px"/>
      <path d="M8.021-14.142s-1.985-4.994-5.072-5.303c-3.218-.323-6.494.448-8.598 1.89-2.689 1.843-3.799-5.159-3.799-5.159-1.219 2.391-.813 4.023-.526 5.098.275 1.04 1.152 1.573 2.156 1.64 1.125.077 2.455-.416 4.243-1.257 1.567-.739 4.252-1.13 6.264-.56 2.427.685 5.332 3.651 5.332 3.651" fill="#fc4b1e" style="stroke-width:1;transform-origin:-112.069px 12.185px"/>
      <circle cx="15.124" cy="-12.124" r="2.2" fill="#000" style="stroke-width:1"/>
      <circle cx="15.624" cy="-12.624" r=".9" fill="#fff" style="stroke-width:1"/>
      <path d="M-13.67-6.659c5.33-8.666 12.67-12 22-10 8.666 2 7.986 10 14.841 10 5.077 0-6.175 8-14.841 10-9.33 2-16.67-1.333-22-10" fill="#b07219" style="stroke-width:1"/>
      <path d="m-10.79-6.659-10-7 3.27 6.837-3.27 7.163z" fill="#b07219" style="stroke-width:1"/>
      <path d="M-5.26-12.539q2.355 3.528 0 5.88 2.355 2.352 0 5.88m4.32-13.026q3.18 3.969 0 7.146 3.18 3.177 0 7.146" stroke="#000" stroke-width=".8" opacity=".3" style="stroke-width:.8" fill="#b07219"/>
      <circle cx="11.968" cy="-11.513" r="2.2" fill="#000" style="stroke-width:1"/>
      <circle cx="12.468" cy="-12.013" r=".9" fill="#fff" style="stroke-width:1"/>
      <path d="M7.667 3.389 3.133-.439l-.908 3.545L1.19 6.813z" fill="#b07219" style="stroke-width:1;transform-origin:-107.038px 36.286px"/>
    </g>
  
        </g>
      </g>

      
    </g>
  

    <g opacity="0">

      <animate
        attributeName="opacity"
        from="0"
        to="1"
        dur="1.5s"
        begin="4.203968299210828s"
        fill="freeze"
      />

      <animateMotion
        dur="57.07986258130404s"
        repeatCount="indefinite"
        begin="4.203968299210828s"
        calcMode="spline"
        keyTimes="0.0000;0.0833;0.1667;0.2500;0.3333;0.4167;0.5000;0.5833;0.6667;0.7500;0.8333;0.9167;1.0000"
        keySplines="0.2 0.1 0.8 0.9;0.2 0.1 0.8 0.9;0.2 0.1 0.8 0.9;0.2 0.1 0.8 0.9;0.2 0.1 0.8 0.9;0.2 0.1 0.8 0.9;0.2 0.1 0.8 0.9;0.2 0.1 0.8 0.9;0.2 0.1 0.8 0.9;0.2 0.1 0.8 0.9;0.2 0.1 0.8 0.9;0.2 0.1 0.8 0.9"
        path="M 680,237.56793085327473 C 653.6,217.84960697751313 626.4,220.34820783330895 600,218.0965250070302 C 534,199.0361221616727 466,209.72511216009227 400,198.08430181917092 C 334,212.69762473690457 266,212.65883012097495 200,202.01396889778798 C 173.6,216.3610666758056 146.4,204.68448059842004 120,202.01396889778798 C 146.4,201.88483769297412 173.6,207.86176729779686 200,228.46289452370982 C 266,233.49735126012064 334,268.24322308675823 400,285.8215682789032 C 466,271.6728379686734 534,217.63645526444816 600,202.7580581341662 C 626.4033,210.90417429655872 653.6067,238.2465103638385 680.01,237.56793085327473"
      />

      <g>
        <animateTransform
          attributeName="transform"
          type="scale"
          values="-1.741575330218288 1.741575330218288; -1.741575330218288 1.741575330218288; 1.741575330218288 1.741575330218288; 1.741575330218288 1.741575330218288; -1.741575330218288 1.741575330218288"
          keyTimes="0;0.5;0.5;1;1"
          calcMode="discrete"
          dur="57.07986258130404s"
          repeatCount="indefinite"
          begin="4.203968299210828s"
        />

        <g>
          <animateTransform
            attributeName="transform"
            type="rotate"
            values="0;2;0;-2;0"
            dur="1.9910256567045508s"
            repeatCount="indefinite"
            begin="4.203968299210828s"
          />
          
    <g>
        <path fill="#3572A5" d="M-1.55 1.627h34.278v7.555H-1.55z" style="stroke-width:1"/>
        <rect x="-1.079" y="-18.462" width="17.667" height="8.668" rx="3.175" ry="3.175" fill="#3572A5" style="stroke-width:1;transform-origin:2.771px -5.496px" transform="rotate(45 -19.557 -15.527)"/>
        <ellipse cx="21.281" cy="1.667" rx="11.447" ry="5.018" fill="#3572A5" style="stroke-width:1"/>
        <circle cx="27.446" cy="2.637" r="2.101" fill="#fff" style="stroke-width:1"/>
        <rect x="-1.079" y="-18.462" width="17.667" height="8.668" rx="3.175" ry="3.175" fill="#3572A5" style="stroke-width:1;transform-origin:10.848px -16.199px" transform="rotate(150 -15.07 6.672)"/>
        <rect x="13.994" y="-7.709" width="17.667" height="8.668" rx="3.175" ry="3.175" fill="#3572A5" style="stroke-width:1;transform-origin:13.935px -3.786px" transform="matrix(-1 0 0 -1 -27.87 7.572)"/>
        <rect x="-16.022" y="-9.2" width="17.667" height="8.668" rx="3.175" ry="3.175" fill="#3572A5" style="stroke-width:1;transform-origin:-16.081px -5.277px" transform="matrix(-1 0 0 -1 32.161 10.555)"/>
    </g>
  
        </g>
      </g>

      
    </g>
  

    <g opacity="0">

      <animate
        attributeName="opacity"
        from="0"
        to="1"
        dur="1.5s"
        begin="8.297555315053614s"
        fill="freeze"
      />

      <animateMotion
        dur="47.59053605170266s"
        repeatCount="indefinite"
        begin="8.297555315053614s"
        calcMode="spline"
        keyTimes="0.0000;0.0833;0.1667;0.2500;0.3333;0.4167;0.5000;0.5833;0.6667;0.7500;0.8333;0.9167;1.0000"
        keySplines="0.2 0.1 0.8 0.9;0.2 0.1 0.8 0.9;0.2 0.1 0.8 0.9;0.2 0.1 0.8 0.9;0.2 0.1 0.8 0.9;0.2 0.1 0.8 0.9;0.2 0.1 0.8 0.9;0.2 0.1 0.8 0.9;0.2 0.1 0.8 0.9;0.2 0.1 0.8 0.9;0.2 0.1 0.8 0.9;0.2 0.1 0.8 0.9"
        path="M 120,174.78260976190992 C 146.4,157.3476714383887 173.6,150.61920411986745 200,121.01383939096671 C 266,128.58572337023847 334,99.9043673484146 400,107.84247909454615 C 466,114.04095307742978 534,115.41722165159534 600,122.82089363679748 C 626.4,136.79851648253148 653.6,131.08999507134772 680,122.82089363679748 C 653.6,110.49603434589918 626.4,75.47688430012848 600,63.990110781472794 C 534,109.36090396435388 466,133.4855168828873 400,178.36579716053345 C 334,149.34897733407084 266,157.79738267556397 200,127.09533475201178 C 173.5967,135.93387500492625 146.3933,146.68612583761248 119.99,174.78260976190992"
      />

      <g>
        <animateTransform
          attributeName="transform"
          type="scale"
          values="1.0810886307645002 1.0810886307645002; 1.0810886307645002 1.0810886307645002; -1.0810886307645002 1.0810886307645002; -1.0810886307645002 1.0810886307645002; 1.0810886307645002 1.0810886307645002"
          keyTimes="0;0.5;0.5;1;1"
          calcMode="discrete"
          dur="47.59053605170266s"
          repeatCount="indefinite"
          begin="8.297555315053614s"
        />

        <g>
          <animateTransform
            attributeName="transform"
            type="rotate"
            values="0;2;0;-2;0"
            dur="2.149516100431356s"
            repeatCount="indefinite"
            begin="8.297555315053614s"
          />
          
    <g>
      <circle cx="23.228" cy="-5.144" r="2" fill="#000" style="stroke-width:1"/>
      <circle cx="23.728" cy="-5.644" r=".8" fill="#fff" style="stroke-width:1"/>
      <path d="M-17.001-2.599q10 8 25 5 10-3 20-5-10-2-20-5-15-3-25 5" fill="#8b8b8b" style="stroke-width:1;transform-origin:5.499px -2.599px" transform="scale(-1)"/>
      <circle cx="21.111" cy="-4.52" r="2" fill="#000" style="stroke-width:1"/>
      <circle cx="21.611" cy="-5.02" r=".8" fill="#fff" style="stroke-width:1"/>
      <path style="fill:#8b8b8b;stroke-width:0;stroke-miterlimit:1;stroke-linejoin:round" d="M-18.391-6.188s1.166 2.735 1.563 3.729l-1.734 3.37 10.8-3.677z"/>
      <path style="fill:#8b8b8b;stroke-width:1" d="M11.745 2.554 15 2.438 8.788 5.423l1.168-2.616z"/>
    </g>
  
        </g>
      </g>

      
    </g>
  

    <g opacity="0">

      <animate
        attributeName="opacity"
        from="0"
        to="1"
        dur="1.5s"
        begin="9.786468682559644s"
        fill="freeze"
      />

      <animateMotion
        dur="51.85452201432781s"
        repeatCount="indefinite"
        begin="9.786468682559644s"
        calcMode="spline"
        keyTimes="0.0000;0.0833;0.1667;0.2500;0.3333;0.4167;0.5000;0.5833;0.6667;0.7500;0.8333;0.9167;1.0000"
        keySplines="0.2 0.1 0.8 0.9;0.2 0.1 0.8 0.9;0.2 0.1 0.8 0.9;0.2 0.1 0.8 0.9;0.2 0.1 0.8 0.9;0.2 0.1 0.8 0.9;0.2 0.1 0.8 0.9;0.2 0.1 0.8 0.9;0.2 0.1 0.8 0.9;0.2 0.1 0.8 0.9;0.2 0.1 0.8 0.9;0.2 0.1 0.8 0.9"
        path="M 680,285.03870719207544 C 653.6,302.44469724908384 626.4,301.32379873649865 600,300 C 534,287.9083278062156 466,261.3878544640156 400,223.8282720760438 C 334,248.1781757879551 266,261.8794110712453 200,261.84391284809607 C 173.6,259.89632506797716 146.4,250.25150614191006 120,261.84391284809607 C 146.4,271.5112896233843 173.6,246.83577753767207 200,249.67165157041882 C 266,225.4708422880404 334,213.21289398806502 400,211.05401622429622 C 466,222.6949996300928 534,204.4157266337556 600,209.6687772830207 C 626.4033,237.3224985246729 653.6067,265.3561460892174 680.01,285.03870719207544"
      />

      <g>
        <animateTransform
          attributeName="transform"
          type="scale"
          values="-0.9966799606994301 0.9966799606994301; -0.9966799606994301 0.9966799606994301; 0.9966799606994301 0.9966799606994301; 0.9966799606994301 0.9966799606994301; -0.9966799606994301 0.9966799606994301"
          keyTimes="0;0.5;0.5;1;1"
          calcMode="discrete"
          dur="51.85452201432781s"
          repeatCount="indefinite"
          begin="9.786468682559644s"
        />

        <g>
          <animateTransform
            attributeName="transform"
            type="rotate"
            values="0;2;0;-2;0"
            dur="1.5647273924114415s"
            repeatCount="indefinite"
            begin="9.786468682559644s"
          />
          
    <g>
      <circle cx="19.924" cy="-8.125" r="2" fill="#000" style="stroke-width:1"/>
      <circle cx="20.424" cy="-8.625" r=".8" fill="#fff" style="stroke-width:1"/>
      <path fill="#3178c6" style="stroke-width:1" d="m24.705-4.661-12-11h-23v22h23z"/>
      <path fill="#3178c6" opacity=".9" style="stroke-width:1" d="m-8.536-4.661-9-7v14z"/>
      <path stroke="#fff" stroke-width=".8" style="stroke-width:.8" d="M-3.296-15.661v22m10-22v22"/>
      <circle cx="17.704" cy="-7.661" r="2" fill="#000" style="stroke-width:1"/>
      <circle cx="18.204" cy="-8.161" r=".8" fill="#fff" style="stroke-width:1"/>
      <path fill="#3178c6" style="stroke-width:1" d="M6.104 6.248.58 1.951v8.594z"/>
    </g>
  
        </g>
      </g>

      
    </g>
  

    <g opacity="0">

      <animate
        attributeName="opacity"
        from="0"
        to="1"
        dur="1.5s"
        begin="13.053586924981573s"
        fill="freeze"
      />

      <animateMotion
        dur="43.79331476974812s"
        repeatCount="indefinite"
        begin="13.053586924981573s"
        calcMode="spline"
        keyTimes="0.0000;0.0833;0.1667;0.2500;0.3333;0.4167;0.5000;0.5833;0.6667;0.7500;0.8333;0.9167;1.0000"
        keySplines="0.2 0.1 0.8 0.9;0.2 0.1 0.8 0.9;0.2 0.1 0.8 0.9;0.2 0.1 0.8 0.9;0.2 0.1 0.8 0.9;0.2 0.1 0.8 0.9;0.2 0.1 0.8 0.9;0.2 0.1 0.8 0.9;0.2 0.1 0.8 0.9;0.2 0.1 0.8 0.9;0.2 0.1 0.8 0.9;0.2 0.1 0.8 0.9"
        path="M 120,165.81544974526437 C 146.4,144.96359645026533 173.6,136.5537591229345 200,112.29004497451639 C 266,150.38629489513096 334,207.92616287757522 400,242.89383911990865 C 466,191.99803408638533 534,173.04171464828664 600,119.0474256231011 C 626.4,123.88018727896541 653.6,109.41154561952843 680,119.0474256231011 C 653.6,182.1552257366853 626.4,223.19290892608967 600,269.76703659500015 C 534,266.81921942212807 466,257.30925929091666 400,249.381637994642 C 334,214.1725023047884 266,145.11866807344538 200,107.71428757750654 C 173.5967,130.5397807116077 146.3933,138.36681503930708 119.99,165.81544974526437"
      />

      <g>
        <animateTransform
          attributeName="transform"
          type="scale"
          values="0.865952556676761 0.865952556676761; 0.865952556676761 0.865952556676761; -0.865952556676761 0.865952556676761; -0.865952556676761 0.865952556676761; 0.865952556676761 0.865952556676761"
          keyTimes="0;0.5;0.5;1;1"
          calcMode="discrete"
          dur="43.79331476974812s"
          repeatCount="indefinite"
          begin="13.053586924981573s"
        />

        <g>
          <animateTransform
            attributeName="transform"
            type="rotate"
            values="0;2;0;-2;0"
            dur="1.549657874267723s"
            repeatCount="indefinite"
            begin="13.053586924981573s"
          />
          
    <g>
      <path d="m-10.72-11.416-8-5v10z" fill="#000" opacity=".8" style="stroke-width:1"/>
      <ellipse cx="2.66" cy="-11.416" rx="16" ry="14" fill="#f1e05a" style="stroke-width:1"/>
      <path stroke="#f1e05a" stroke-width="2" stroke-linecap="round" style="stroke-width:2" d="M2.66-25.416v-7m10 11 5-5m-5 25 5 5m-14.995-1-.01 7M-8.007-1.026l-4 5m4.055-25.891-4-5"/>
      <circle cx="12.66" cy="-14.416" r="2.5" fill="#000" style="stroke-width:1"/>
      <circle cx="13.16" cy="-14.916" r="1" fill="#fff" style="stroke-width:1"/>
      <path d="m3.876-1.249-4.202-3.72-.761 5.562z" fill="#000" opacity=".8" style="stroke-width:1;transform-origin:1.585px -1.719px"/>
      <path style="fill:none;stroke:#000;stroke-width:1" d="M14.648-17.455c-3.146-1.45-5.246-.45-5.821 3.144"/>
      <path stroke="#f1e05a" stroke-width="2" stroke-linecap="round" style="stroke-width:2;transform-origin:8.58px -22.373px" d="m7.347-21.906 2.466-6.627"/>
      <path stroke="#f1e05a" stroke-width="2" stroke-linecap="round" style="stroke-width:2;transform-origin:8.486px 5.278px" d="M9.719 5.745 7.253-.882"/>
      <path stroke="#f1e05a" stroke-width="2" stroke-linecap="round" style="stroke-width:2;transform-origin:-2.93px -22.351px" d="m-1.697-21.884-2.466-6.627"/>
      <path stroke="#f1e05a" stroke-width="2" stroke-linecap="round" style="stroke-width:2;transform-origin:-3.229px 5.241px" d="m-4.462 5.708 2.466-6.627"/>
    </g>
  
        </g>
      </g>

      
    </g>
  

    <g opacity="0">

      <animate
        attributeName="opacity"
        from="0"
        to="1"
        dur="1.5s"
        begin="17.098137067529024s"
        fill="freeze"
      />

      <animateMotion
        dur="45.626327270583715s"
        repeatCount="indefinite"
        begin="17.098137067529024s"
        calcMode="spline"
        keyTimes="0.0000;0.0833;0.1667;0.2500;0.3333;0.4167;0.5000;0.5833;0.6667;0.7500;0.8333;0.9167;1.0000"
        keySplines="0.2 0.1 0.8 0.9;0.2 0.1 0.8 0.9;0.2 0.1 0.8 0.9;0.2 0.1 0.8 0.9;0.2 0.1 0.8 0.9;0.2 0.1 0.8 0.9;0.2 0.1 0.8 0.9;0.2 0.1 0.8 0.9;0.2 0.1 0.8 0.9;0.2 0.1 0.8 0.9;0.2 0.1 0.8 0.9;0.2 0.1 0.8 0.9"
        path="M 680,98.03150605850142 C 653.6,102.6093826562727 626.4,78.45811690923925 600,81.95396122578032 C 534,92.92915209201341 466,115.64501079884947 400,115.15233679703769 C 334,104.70746238394358 266,107.88771601523246 200,87.95816273777571 C 173.6,98.58531366588838 146.4,90.9933474595641 120,87.95816273777571 C 146.4,89.20301875850541 173.6,103.32190449461628 200,120.93164964216412 C 266,101.57757763409755 334,72.24380776201146 400,69.59669591205316 C 466,75.50464753120589 534,115.3198252741823 600,124.80627030992963 C 626.4033,118.6067595839781 653.6067,113.30170027770276 680.01,98.03150605850142"
      />

      <g>
        <animateTransform
          attributeName="transform"
          type="scale"
          values="-0.8362666310159241 0.8362666310159241; -0.8362666310159241 0.8362666310159241; 0.8362666310159241 0.8362666310159241; 0.8362666310159241 0.8362666310159241; -0.8362666310159241 0.8362666310159241"
          keyTimes="0;0.5;0.5;1;1"
          calcMode="discrete"
          dur="45.626327270583715s"
          repeatCount="indefinite"
          begin="17.098137067529024s"
        />

        <g>
          <animateTransform
            attributeName="transform"
            type="rotate"
            values="0;2;0;-2;0"
            dur="2.237796782195801s"
            repeatCount="indefinite"
            begin="17.098137067529024s"
          />
          
    <g>
      <path d="M28.871-3.415 5.269-.882l-7.222 4.693-22.58-2.71v-9.032l22.58-2.71 7.232 5.307z" fill="#f34b7d" style="stroke-width:1;transform-box:fill-box;transform-origin:50% 50%" transform="scale(-1)"/>
      <path d="m37.317-3.415-10.872-8.451V5.036z" fill="#f34b7d" style="stroke-width:1;transform-origin:31.881px -3.415px"/>
      <circle cx="-11.476" cy="-5.221" r="2.146" fill="#000" style="stroke-width:1" transform="scale(-1 1)"/>
      <circle cx="-11.025" cy="-5.673" r=".723" fill="#fff" style="stroke-width:1" transform="scale(-1 1)"/>
      <path d="m-10.033-2.437 6.264 11.644 6.863-.835 4.118-.5-10.492-6.05-.189-8.01" fill="#f34b7d" opacity=".8" style="stroke-width:1;paint-order:fill;stroke-miterlimit:12.2;stroke-linejoin:bevel;transform-origin:-1.411px 1.509px" transform="matrix(0 -1.00001 .99999 0 0 0)"/>
      <path d="m-7.226-2.323-2.309-3.059 5.48-10.188 6.864.834 4.118.501-10.492 6.048-.189 8.012" fill="#f34b7d" opacity=".8" style="stroke-width:1;paint-order:fill;stroke-miterlimit:12.2;stroke-linejoin:bevel;transform-origin:-1.304px -7.873px" transform="rotate(90)scale(1.00001 .99999)"/>
      <path d="m-9.115-3.907-2.102-4.688-2.028 4.935L-11.31.952z" fill="#f34b7d" style="stroke-width:1;transform-origin:-5.834px .472px"/>
      <path d="m-16.809-3.629-2.102-4.689-2.028 4.936 1.935 4.61z" fill="#f34b7d" style="stroke-width:1;transform-origin:-13.528px .75px"/>
    </g>
  
        </g>
      </g>

      
    </g>
  

    <g opacity="0">

      <animate
        attributeName="opacity"
        from="0"
        to="1"
        dur="1.5s"
        begin="20.940179530443856s"
        fill="freeze"
      />

      <animateMotion
        dur="43.69816680518852s"
        repeatCount="indefinite"
        begin="20.940179530443856s"
        calcMode="spline"
        keyTimes="0.0000;0.0833;0.1667;0.2500;0.3333;0.4167;0.5000;0.5833;0.6667;0.7500;0.8333;0.9167;1.0000"
        keySplines="0.2 0.1 0.8 0.9;0.2 0.1 0.8 0.9;0.2 0.1 0.8 0.9;0.2 0.1 0.8 0.9;0.2 0.1 0.8 0.9;0.2 0.1 0.8 0.9;0.2 0.1 0.8 0.9;0.2 0.1 0.8 0.9;0.2 0.1 0.8 0.9;0.2 0.1 0.8 0.9;0.2 0.1 0.8 0.9;0.2 0.1 0.8 0.9"
        path="M 120,271.0738040205076 C 146.4,285.64443314812115 173.6,300.24390698398753 200,300 C 266,290.6024349106592 334,306.63386924274965 400,300 C 466,287.6417311136602 534,277.68259987764174 600,288.04604509629917 C 626.4,288.231253507162 653.6,278.30234409115417 680,288.04604509629917 C 653.6,280.651838835795 626.4,303.0395176036279 600,295.3663743822147 C 534,270.5175652568911 466,274.56186274757255 400,246.77789097023285 C 334,261.80667013161695 266,287.65814541899556 200,293.62320459034504 C 173.5967,295.5711225039411 146.3933,277.7512712670271 119.99,271.0738040205076"
      />

      <g>
        <animateTransform
          attributeName="transform"
          type="scale"
          values="0.814430118502579 0.814430118502579; 0.814430118502579 0.814430118502579; -0.814430118502579 0.814430118502579; -0.814430118502579 0.814430118502579; 0.814430118502579 0.814430118502579"
          keyTimes="0;0.5;0.5;1;1"
          calcMode="discrete"
          dur="43.69816680518852s"
          repeatCount="indefinite"
          begin="20.940179530443856s"
        />

        <g>
          <animateTransform
            attributeName="transform"
            type="rotate"
            values="0;2;0;-2;0"
            dur="2.2954017667761946s"
            repeatCount="indefinite"
            begin="20.940179530443856s"
          />
          
    <g>
      <circle cx="8.354" cy="-4.962" fill="#64b033" r="7.518"/>
      <circle cx="-2.988" cy="-19.729" fill="#89e051" r="17.616"/>
      <path d="M-10.706-3.869q-4.984-2.016 0-4.033L3.06-13.47q4.984-2.017 4.984 2.016v11.14q0 4.032-4.984 2.015Z" fill="#89e051"/>
      <path d="m9.65-.47 2.707-.457C12.3 1.645 33.328 2.715 33.382.144c.548 3.83-22.93 4.957-23.732-.614m3.232-7.358 2.073.171c-.209-1.939 15.607-4.11 15.816-2.17.165-2.93-17.645-2.262-17.889 1.999" fill="#64b033"/>
      <path d="m9.905-2.127.073-1.6c.639.945 18.736 1.988 21.288.812C28.16.042 14.073-.589 9.905-2.127m.246-3.835 1.959-.702c.299 1.928 16.138-.069 15.838-1.997.918 2.787-16.458 6.751-17.797 2.699" fill="#64b033"/>
      <circle cx="11.497" cy="-4.812" r="2.044" fill="#000"/>
      <circle cx="12.008" cy="-5.323" r=".818" fill="#fff"/>
      <path d="m-14.295-27.449 9.022 6.316-8.571 6.654m9.839-.148 11.977-.037" fill="#89e051" stroke="#000"/>
    </g>
  
        </g>
      </g>

      
    </g>
  

        

        
      </g>
    </svg>
  