
    <svg width="800" height="400" viewBox="0 0 800 400" xmlns="http://www.w3.org/2000/svg">
      <defs>
        <clipPath id="roundedCorners">
          <rect x="0" y="0" width="800" height="400" rx="14" ry="14" />
        </clipPath>
      </defs>
      <g clip-path="url(#roundedCorners)">
        
      <defs>
        <linearGradient id="bgGrad" x1="0%" y1="0%" x2="0%" y2="100%">
          <stop offset="0%" style="stop-color:#000000;stop-opacity:1" />
          <stop offset="50%" style="stop-color:#000000;stop-opacity:1" />
          <stop offset="100%" style="stop-color:#000000;stop-opacity:1" />
        </linearGradient>
        <linearGradient id="sandGrad" x1="0%" y1="0%" x2="0%" y2="100%">
          <stop offset="0%" style="stop-color:#e4dfd8;stop-opacity:1" />
          <stop offset="100%" style="stop-color:#bcb7b0;stop-opacity:1" />
        </linearGradient>
        <linearGradient id="reflectionGrad" x1="0%" y1="0%" x2="0%" y2="100%">
          <stop offset="0%" style="stop-color:#ffffff;stop-opacity:0.15" />
          <stop offset="100%" style="stop-color:#ffffff;stop-opacity:0" />
        </linearGradient>
      </defs>
      <rect width="100%" height="100%" fill="url(#bgGrad)" />
    
        
    <path d="M0,375 Q80,365 160,372 Q240,362 320,375 Q400,368 480,372 Q560,365 640,375 Q720,370 800,372 L800,400 L0,400 Z" fill="url(#sandGrad)" />
    <ellipse cx="100" cy="380" rx="30" ry="5" fill="#d0cbc4" opacity="0.4" />
    <ellipse cx="500" cy="378" rx="45" ry="6" fill="#d0cbc4" opacity="0.3" />
    <ellipse cx="700" cy="382" rx="25" ry="4" fill="#d0cbc4" opacity="0.4" />
  
      <g transform="translate(50, 350)">
        <ellipse cx="2.486" cy="31.955" rx="32.21" ry="5.856" fill="#000" opacity=".15" style="stroke-width:1"/>
        <path d="M11.704 19.897c-2.229 3.497-.993 7.744 1.896 10.631q4.329 4.332 10.827 2.166 6.495-2.166 5.413-8.662-1.083-6.496-7.579-7.579c-4.33-.722-7.891.214-10.557 3.444" style="stroke-width:1;fill:#818388;transform-box:fill-box;transform-origin:50% 50%"/>
        <path d="M14.725 23.78c-1.951.305 0 5.053 2.165 6.497 2.165.721 5.133-.869 3.992-3.418-1.443-2.165-3.271-3.079-6.157-3.079" opacity=".6" style="stroke-width:1;fill:#5c626c;transform-box:fill-box;transform-origin:50% 50%"/>
        <circle cx="27.351" cy="-23.359" r=".866" style="stroke-width:1;fill:#5c626c;transform-box:fill-box;transform-origin:50% 50%" transform="matrix(1 0 0 -1 0 46.718)"/>
        <circle cx="25.325" cy="-30.117" r=".649" style="stroke-width:1;fill:#5c626c;transform-box:fill-box;transform-origin:50% 50%" transform="matrix(1 0 0 -1 0 60.234)"/>
        <path d="M-28.296 25.559c-6.029-9.456-2.686-20.943 5.127-28.751q11.71-11.713 29.279-5.856 17.57 5.856 14.641 23.425Q17.823 31.947.254 34.874c-11.711 1.952-21.341-.578-28.55-9.315" style="stroke-width:1; fill: rgb(186, 189, 197);"/>
        <path d="M-5.386 33.456c-5.276-.824 0-13.665 5.854-17.569 5.856-1.952 13.882 2.35 10.796 9.243-3.903 5.856-8.844 8.326-16.65 8.326" fill="#6f7682" opacity=".6" style="stroke-width:1;transform-box:fill-box;transform-origin:50% 50%" transform="rotate(14.809)"/>
        <circle cx="-19.537" cy="25.989" r="2.343" fill="#6f7682" style="stroke-width:1"/>
        <circle cx="7.14" cy="-2.078" r="1.757" fill="#6f7682" style="stroke-width:1"/>
      </g>
      <g transform="translate(350, 355)">
        <ellipse cx="1.842" cy="31.311" rx="32.21" ry="5.856" fill="#000" opacity=".15" style="stroke-width:1"/>
        <path d="M11.283 19.919c-2.229 3.497-.993 7.744 1.896 10.631q4.329 4.332 10.827 2.166 6.496-2.166 5.413-8.662t-7.579-7.579c-4.33-.722-7.891.214-10.557 3.444" style="stroke-width:1;fill: rgb(186, 189, 197);;transform-box:fill-box;transform-origin:50% 50%" transform="scale(-1)"/>
        <path d="M19.801 19.211c-1.951.305 0 5.053 2.165 6.497 2.165.721 5.133-.869 3.992-3.418-1.443-2.165-3.271-3.079-6.157-3.079" opacity=".6" style="stroke-width:1;fill:#5c626c;transform-box:fill-box;transform-origin:50% 50%" transform="scale(-1)"/>
        <circle cx="-12.782" cy="26.302" r=".866" style="stroke-width:1;fill:#5c626c;transform-box:fill-box;transform-origin:50% 50%" transform="matrix(-1 0 0 1 25.564 0)"/>
        <circle cx="-14.808" cy="19.544" r=".649" style="stroke-width:1;fill:#5c626c;transform-box:fill-box;transform-origin:50% 50%" transform="matrix(-1 0 0 1 29.616 0)"/>
        <path d="M-33.093 26.916c-3.814-5.982-1.699-13.248 3.243-18.187q7.407-7.41 18.521-3.704Q-.215 8.729-2.068 19.842-3.92 30.957-15.034 32.808c-7.408 1.235-13.499-.365-18.059-5.892" style="stroke-width:1;fill: rgb(186, 189, 197);transform-box:fill-box;transform-origin:50% 50%" transform="rotate(235.112)"/>
        <path d="M-21.183 28.582c-2.181-2.236 2.021-7.208 5.152-7.269 2.845.97 5.71 5.98 3.344 8.562-2.569 1.756-5.09 1.372-8.496-1.293" fill="#6f7682" opacity=".6" style="stroke-width:1;transform-origin:-16.542px 26.412px" transform="rotate(-15)"/>
        <circle cx="-9.288" cy="23.567" r="1.009" fill="#6f7682" style="stroke-width:1"/>
        <circle cx="-26.849" cy="11.061" r="1.757" fill="#6f7682" style="stroke-width:1"/>
        <path d="M-1.952 26.79c-3.334.447 0 7.41 3.7 9.528 3.699 1.057 8.771-1.275 6.821-5.013C6.104 28.13 2.98 26.79-1.952 26.79" style="stroke-width:1;fill:#8b8f99;transform-origin:2.838px 31.682px" transform="rotate(142.4)"/>
        <circle cx="3.839" cy="31.682" r="1.757" fill="#6f7682" style="stroke-width:1"/>
      </g>
      <g transform="translate(650, 345)">
        <ellipse cx="15.964" cy="39.858" rx="37.799" ry="6.872" fill="#000" opacity=".15" style="stroke-width:1"/>
        <path d="M44.219 32.965c6.398-7.225-29.5-12.5-47.008-8.891-13.282 5.397-16.438 19.175 3.227 21.697 18.685.571 31.683-3.234 43.781-12.806" style="stroke-width:1;fill:#8b8f99;transform-origin:12.994px 34.01px" transform="rotate(8.894)"/>
        <circle cx="-9.761" cy="29.163" r="1.757" fill="#6f7682" style="stroke-width:1" transform="matrix(1.52279 0 0 1.45003 14.18 -3.783)"/>
        <path d="M-12.27 28.116c-12.254-4.102 1.607-12.187 15.773-11.936 13.933 1.998 32.215 10.952 24.185 15.13-9.824 2.733-21.686 1.785-39.958-3.194" style="stroke-width:1;fill:#a1a5b0;transform-origin:6.537px 24.904px" transform="rotate(-9.819)"/>
        <circle cx="-34.917" cy="31.551" r=".988" style="stroke-width:1;fill:#6f7682;transform-box:fill-box;transform-origin:50% 50%" transform="matrix(-1 0 0 1 69.834 0)"/>
        <path d="M1.692 22.948c-8.121-2.398-.267-11.88 8.65-13.411 8.953.175 21.366 6.471 16.765 11.479-5.879 3.846-13.425 4.421-25.415 1.932" style="stroke-width:1;fill:#babdc5;transform-origin:13.161px 17.52px"/>
        <path d="M-14.304 19.306c-1.309 2.052-.583 4.542 1.111 6.236q2.54 2.54 6.351 1.27 3.809-1.27 3.176-5.082-.638-3.809-4.447-4.444c-2.54-.424-4.628.126-6.191 2.02" style="stroke-width:1;fill:#babdc5;transform-origin:-9.277px 22.193px" transform="scale(-1)"/>
        <path d="M-12.534 21.583c-1.144.178 0 2.964 1.27 3.81 1.271.423 3.011-.508 2.343-2.004-.847-1.27-1.919-1.806-3.613-1.806" opacity=".6" style="stroke-width:1;fill:#909298;transform-origin:-9.277px 22.193px" transform="scale(-1)"/>
        <circle cx="13.424" cy="23.05" r=".509" style="stroke-width:1;fill:#909298;transform-origin:9.276px 22.193px" transform="matrix(-1 0 0 1 -18.553 0)"/>
      </g>
    

        
    <g opacity="0">

      <animate
        attributeName="opacity"
        from="0"
        to="1"
        dur="1.5s"
        begin="0.5487490561517916s"
        fill="freeze"
      />

      <animateMotion
        dur="43.658327041011944s"
        repeatCount="indefinite"
        begin="0.5487490561517916s"
        calcMode="spline"
        keyTimes="0.0000;0.0833;0.1667;0.2500;0.3333;0.4167;0.5000;0.5833;0.6667;0.7500;0.8333;0.9167;1.0000"
        keySplines="0.2 0.1 0.8 0.9;0.2 0.1 0.8 0.9;0.2 0.1 0.8 0.9;0.2 0.1 0.8 0.9;0.2 0.1 0.8 0.9;0.2 0.1 0.8 0.9;0.2 0.1 0.8 0.9;0.2 0.1 0.8 0.9;0.2 0.1 0.8 0.9;0.2 0.1 0.8 0.9;0.2 0.1 0.8 0.9;0.2 0.1 0.8 0.9"
        path="M 120,85.90627857820206 C 146.4,80.97164958431722 173.6,63.70365160766902 200,50 C 266,67.06022094744958 334,83.89411160897437 400,99.65213865905946 C 466,83.4538125887738 534,73.83858022841122 600,64.45983959639032 C 626.4,51.31137117795932 653.6,68.14799885514475 680,64.45983959639032 C 653.6,64.94515383685214 626.4,79.77244544853077 600,94.0328425528075 C 534,100.84622777927986 466,112.96861053000498 400,102.49376501196087 C 334,81.62713015575864 266,84.63232635525128 200,75.91937843359561 C 173.5967,90.9566085705712 146.3933,82.07778435527753 119.99,85.90627857820206"
      />

      <g>
        <animateTransform
          attributeName="transform"
          type="scale"
          values="2.0072218108019704 2.0072218108019704; 2.0072218108019704 2.0072218108019704; -2.0072218108019704 2.0072218108019704; -2.0072218108019704 2.0072218108019704; 2.0072218108019704 2.0072218108019704"
          keyTimes="0;0.5;0.5;1;1"
          calcMode="discrete"
          dur="43.658327041011944s"
          repeatCount="indefinite"
          begin="0.5487490561517916s"
        />

        <g>
          <animateTransform
            attributeName="transform"
            type="rotate"
            values="0;2;0;-2;0"
            dur="1.6829163520505972s"
            repeatCount="indefinite"
            begin="0.5487490561517916s"
          />
          
    <g>
      <path d="m16.295-11.268-20.21-17.325V6.056z" fill="#701516" style="stroke-width:1"/>
      <path d="m-2.387.011.232-23.746-8.483-4.883-1.673 1.899-.085 30.56 1.758 2.19z" fill="#701516" style="stroke-width:1;transform-box:fill-box;transform-origin:50% 50%" transform="scale(-1)"/>
      <path d="m-9.674-10.63-8.691-7.449V-3.18z" fill="#701516" style="stroke-width:1"/>
      <circle cx="3.402" cy="-13.218" r="3.208" fill="#000" style="stroke-width:1"/>
      <circle cx="4.205" cy="-14.019" r="1.283" fill="#fff" style="stroke-width:1"/>
    </g>
  
        </g>
      </g>

      
      <text
        x="0"
        y="36"
        font-size="17"
        fill="#fff"
        font-family="monospace"
        text-anchor="middle"
        opacity="0.9"
      >
        Ruby
      </text>
      
    </g>
  

    <g opacity="0">

      <animate
        attributeName="opacity"
        from="0"
        to="1"
        dur="1.5s"
        begin="4.203968299210828s"
        fill="freeze"
      />

      <animateMotion
        dur="57.07986258130404s"
        repeatCount="indefinite"
        begin="4.203968299210828s"
        calcMode="spline"
        keyTimes="0.0000;0.0833;0.1667;0.2500;0.3333;0.4167;0.5000;0.5833;0.6667;0.7500;0.8333;0.9167;1.0000"
        keySplines="0.2 0.1 0.8 0.9;0.2 0.1 0.8 0.9;0.2 0.1 0.8 0.9;0.2 0.1 0.8 0.9;0.2 0.1 0.8 0.9;0.2 0.1 0.8 0.9;0.2 0.1 0.8 0.9;0.2 0.1 0.8 0.9;0.2 0.1 0.8 0.9;0.2 0.1 0.8 0.9;0.2 0.1 0.8 0.9;0.2 0.1 0.8 0.9"
        path="M 680,237.56793085327473 C 653.6,217.84960697751313 626.4,220.34820783330895 600,218.0965250070302 C 534,199.0361221616727 466,209.72511216009227 400,198.08430181917092 C 334,212.69762473690457 266,212.65883012097495 200,202.01396889778798 C 173.6,216.3610666758056 146.4,204.68448059842004 120,202.01396889778798 C 146.4,201.88483769297412 173.6,207.86176729779686 200,228.46289452370982 C 266,233.49735126012064 334,268.24322308675823 400,285.8215682789032 C 466,271.6728379686734 534,217.63645526444816 600,202.7580581341662 C 626.4033,210.90417429655872 653.6067,238.2465103638385 680.01,237.56793085327473"
      />

      <g>
        <animateTransform
          attributeName="transform"
          type="scale"
          values="-1.2859026573994101 1.2859026573994101; -1.2859026573994101 1.2859026573994101; 1.2859026573994101 1.2859026573994101; 1.2859026573994101 1.2859026573994101; -1.2859026573994101 1.2859026573994101"
          keyTimes="0;0.5;0.5;1;1"
          calcMode="discrete"
          dur="57.07986258130404s"
          repeatCount="indefinite"
          begin="4.203968299210828s"
        />

        <g>
          <animateTransform
            attributeName="transform"
            type="rotate"
            values="0;2;0;-2;0"
            dur="1.9910256567045508s"
            repeatCount="indefinite"
            begin="4.203968299210828s"
          />
          
    <g>
      <circle cx="21.711" cy="-3.597" r="2" fill="#000" style="stroke-width:1"/>
      <circle cx="22.211" cy="-4.097" r=".8" fill="#fff" style="stroke-width:1"/>
      <path d="m25.6.108-16-13-20 13 20 13z" fill="#178600" style="stroke-width:1"/>
      <path d="m-.437 5.153-4.767-3.177V8.33z" fill="#178600" opacity=".9" style="stroke-width:1;transform-origin:-2.821px 5.153px" transform="rotate(30)"/>
      <path d="m10.218-10.635-9-6v12z" fill="#178600" opacity=".9" style="stroke-width:1;transform-box:fill-box;transform-origin:50% 50%" transform="rotate(-30)"/>
      <path d="m-6.973.108-9-6v12z" fill="#178600" style="stroke-width:1"/>
      <path d="M9.173-9.412-1.009 5.314" stroke="#fff" opacity=".3" style="stroke-width:1;transform-box:fill-box;transform-origin:50% 50%" transform="rotate(-15)"/>
      <circle cx="19.416" cy="-3.255" r="2" fill="#000" style="stroke-width:1"/>
      <circle cx="19.916" cy="-3.755" r=".8" fill="#fff" style="stroke-width:1"/>
      <path d="m13.859-9.182-10.58 15.3" stroke="#fff" opacity=".3" style="stroke-width:1;transform-origin:8.569px -1.532px" transform="rotate(-15)"/>
      <path d="M9.915-6.402.693 6.832" stroke="#fff" opacity=".3" style="stroke-width:1;transform-origin:5.304px .215px" transform="rotate(56.691)"/>
      <path d="M12.282-11.559 3.06 1.675" stroke="#fff" opacity=".3" style="stroke-width:1;transform-origin:7.671px -4.942px" transform="rotate(56.691)"/>
    </g>
  
        </g>
      </g>

      
      <text
        x="0"
        y="36"
        font-size="17"
        fill="#fff"
        font-family="monospace"
        text-anchor="middle"
        opacity="0.9"
      >
        C#
      </text>
      
    </g>
  

    <g opacity="0">

      <animate
        attributeName="opacity"
        from="0"
        to="1"
        dur="1.5s"
        begin="8.297555315053614s"
        fill="freeze"
      />

      <animateMotion
        dur="47.59053605170266s"
        repeatCount="indefinite"
        begin="8.297555315053614s"
        calcMode="spline"
        keyTimes="0.0000;0.0833;0.1667;0.2500;0.3333;0.4167;0.5000;0.5833;0.6667;0.7500;0.8333;0.9167;1.0000"
        keySplines="0.2 0.1 0.8 0.9;0.2 0.1 0.8 0.9;0.2 0.1 0.8 0.9;0.2 0.1 0.8 0.9;0.2 0.1 0.8 0.9;0.2 0.1 0.8 0.9;0.2 0.1 0.8 0.9;0.2 0.1 0.8 0.9;0.2 0.1 0.8 0.9;0.2 0.1 0.8 0.9;0.2 0.1 0.8 0.9;0.2 0.1 0.8 0.9"
        path="M 120,174.78260976190992 C 146.4,157.3476714383887 173.6,150.61920411986745 200,121.01383939096671 C 266,128.58572337023847 334,99.9043673484146 400,107.84247909454615 C 466,114.04095307742978 534,115.41722165159534 600,122.82089363679748 C 626.4,136.79851648253148 653.6,131.08999507134772 680,122.82089363679748 C 653.6,110.49603434589918 626.4,75.47688430012848 600,63.990110781472794 C 534,109.36090396435388 466,133.4855168828873 400,178.36579716053345 C 334,149.34897733407084 266,157.79738267556397 200,127.09533475201178 C 173.5967,135.93387500492625 146.3933,146.68612583761248 119.99,174.78260976190992"
      />

      <g>
        <animateTransform
          attributeName="transform"
          type="scale"
          values="1.1141795782284838 1.1141795782284838; 1.1141795782284838 1.1141795782284838; -1.1141795782284838 1.1141795782284838; -1.1141795782284838 1.1141795782284838; 1.1141795782284838 1.1141795782284838"
          keyTimes="0;0.5;0.5;1;1"
          calcMode="discrete"
          dur="47.59053605170266s"
          repeatCount="indefinite"
          begin="8.297555315053614s"
        />

        <g>
          <animateTransform
            attributeName="transform"
            type="rotate"
            values="0;2;0;-2;0"
            dur="2.149516100431356s"
            repeatCount="indefinite"
            begin="8.297555315053614s"
          />
          
    <g>
      <circle cx="23.228" cy="-5.144" r="2" fill="#000" style="stroke-width:1"/>
      <circle cx="23.728" cy="-5.644" r=".8" fill="#fff" style="stroke-width:1"/>
      <path d="M-17.001-2.599q10 8 25 5 10-3 20-5-10-2-20-5-15-3-25 5" fill="#8b8b8b" style="stroke-width:1;transform-origin:5.499px -2.599px" transform="scale(-1)"/>
      <circle cx="21.111" cy="-4.52" r="2" fill="#000" style="stroke-width:1"/>
      <circle cx="21.611" cy="-5.02" r=".8" fill="#fff" style="stroke-width:1"/>
      <path style="fill:#8b8b8b;stroke-width:0;stroke-miterlimit:1;stroke-linejoin:round" d="M-18.391-6.188s1.166 2.735 1.563 3.729l-1.734 3.37 10.8-3.677z"/>
      <path style="fill:#8b8b8b;stroke-width:1" d="M11.745 2.554 15 2.438 8.788 5.423l1.168-2.616z"/>
    </g>
  
        </g>
      </g>

      
      <text
        x="0"
        y="36"
        font-size="17"
        fill="#fff"
        font-family="monospace"
        text-anchor="middle"
        opacity="0.9"
      >
        CoffeeScript
      </text>
      
    </g>
  

    <g opacity="0">

      <animate
        attributeName="opacity"
        from="0"
        to="1"
        dur="1.5s"
        begin="9.786468682559644s"
        fill="freeze"
      />

      <animateMotion
        dur="51.85452201432781s"
        repeatCount="indefinite"
        begin="9.786468682559644s"
        calcMode="spline"
        keyTimes="0.0000;0.0833;0.1667;0.2500;0.3333;0.4167;0.5000;0.5833;0.6667;0.7500;0.8333;0.9167;1.0000"
        keySplines="0.2 0.1 0.8 0.9;0.2 0.1 0.8 0.9;0.2 0.1 0.8 0.9;0.2 0.1 0.8 0.9;0.2 0.1 0.8 0.9;0.2 0.1 0.8 0.9;0.2 0.1 0.8 0.9;0.2 0.1 0.8 0.9;0.2 0.1 0.8 0.9;0.2 0.1 0.8 0.9;0.2 0.1 0.8 0.9;0.2 0.1 0.8 0.9"
        path="M 680,285.03870719207544 C 653.6,302.44469724908384 626.4,301.32379873649865 600,300 C 534,287.9083278062156 466,261.3878544640156 400,223.8282720760438 C 334,248.1781757879551 266,261.8794110712453 200,261.84391284809607 C 173.6,259.89632506797716 146.4,250.25150614191006 120,261.84391284809607 C 146.4,271.5112896233843 173.6,246.83577753767207 200,249.67165157041882 C 266,225.4708422880404 334,213.21289398806502 400,211.05401622429622 C 466,222.6949996300928 534,204.4157266337556 600,209.6687772830207 C 626.4033,237.3224985246729 653.6067,265.3561460892174 680.01,285.03870719207544"
      />

      <g>
        <animateTransform
          attributeName="transform"
          type="scale"
          values="-1.0834898908897967 1.0834898908897967; -1.0834898908897967 1.0834898908897967; 1.0834898908897967 1.0834898908897967; 1.0834898908897967 1.0834898908897967; -1.0834898908897967 1.0834898908897967"
          keyTimes="0;0.5;0.5;1;1"
          calcMode="discrete"
          dur="51.85452201432781s"
          repeatCount="indefinite"
          begin="9.786468682559644s"
        />

        <g>
          <animateTransform
            attributeName="transform"
            type="rotate"
            values="0;2;0;-2;0"
            dur="1.5647273924114415s"
            repeatCount="indefinite"
            begin="9.786468682559644s"
          />
          
    <g>
      <circle cx="8.354" cy="-4.962" fill="#64b033" r="7.518"/>
      <circle cx="-2.988" cy="-19.729" fill="#89e051" r="17.616"/>
      <path d="M-10.706-3.869q-4.984-2.016 0-4.033L3.06-13.47q4.984-2.017 4.984 2.016v11.14q0 4.032-4.984 2.015Z" fill="#89e051"/>
      <path d="m9.65-.47 2.707-.457C12.3 1.645 33.328 2.715 33.382.144c.548 3.83-22.93 4.957-23.732-.614m3.232-7.358 2.073.171c-.209-1.939 15.607-4.11 15.816-2.17.165-2.93-17.645-2.262-17.889 1.999" fill="#64b033"/>
      <path d="m9.905-2.127.073-1.6c.639.945 18.736 1.988 21.288.812C28.16.042 14.073-.589 9.905-2.127m.246-3.835 1.959-.702c.299 1.928 16.138-.069 15.838-1.997.918 2.787-16.458 6.751-17.797 2.699" fill="#64b033"/>
      <circle cx="11.497" cy="-4.812" r="2.044" fill="#000"/>
      <circle cx="12.008" cy="-5.323" r=".818" fill="#fff"/>
      <path d="m-14.295-27.449 9.022 6.316-8.571 6.654m9.839-.148 11.977-.037" fill="#89e051" stroke="#000"/>
    </g>
  
        </g>
      </g>

      
      <text
        x="0"
        y="36"
        font-size="17"
        fill="#fff"
        font-family="monospace"
        text-anchor="middle"
        opacity="0.9"
      >
        Shell
      </text>
      
    </g>
  

    <g opacity="0">

      <animate
        attributeName="opacity"
        from="0"
        to="1"
        dur="1.5s"
        begin="13.053586924981573s"
        fill="freeze"
      />

      <animateMotion
        dur="43.79331476974812s"
        repeatCount="indefinite"
        begin="13.053586924981573s"
        calcMode="spline"
        keyTimes="0.0000;0.0833;0.1667;0.2500;0.3333;0.4167;0.5000;0.5833;0.6667;0.7500;0.8333;0.9167;1.0000"
        keySplines="0.2 0.1 0.8 0.9;0.2 0.1 0.8 0.9;0.2 0.1 0.8 0.9;0.2 0.1 0.8 0.9;0.2 0.1 0.8 0.9;0.2 0.1 0.8 0.9;0.2 0.1 0.8 0.9;0.2 0.1 0.8 0.9;0.2 0.1 0.8 0.9;0.2 0.1 0.8 0.9;0.2 0.1 0.8 0.9;0.2 0.1 0.8 0.9"
        path="M 120,165.81544974526437 C 146.4,144.96359645026533 173.6,136.5537591229345 200,112.29004497451639 C 266,150.38629489513096 334,207.92616287757522 400,242.89383911990865 C 466,191.99803408638533 534,173.04171464828664 600,119.0474256231011 C 626.4,123.88018727896541 653.6,109.41154561952843 680,119.0474256231011 C 653.6,182.1552257366853 626.4,223.19290892608967 600,269.76703659500015 C 534,266.81921942212807 466,257.30925929091666 400,249.381637994642 C 334,214.1725023047884 266,145.11866807344538 200,107.71428757750654 C 173.5967,130.5397807116077 146.3933,138.36681503930708 119.99,165.81544974526437"
      />

      <g>
        <animateTransform
          attributeName="transform"
          type="scale"
          values="0.9577741576054076 0.9577741576054076; 0.9577741576054076 0.9577741576054076; -0.9577741576054076 0.9577741576054076; -0.9577741576054076 0.9577741576054076; 0.9577741576054076 0.9577741576054076"
          keyTimes="0;0.5;0.5;1;1"
          calcMode="discrete"
          dur="43.79331476974812s"
          repeatCount="indefinite"
          begin="13.053586924981573s"
        />

        <g>
          <animateTransform
            attributeName="transform"
            type="rotate"
            values="0;2;0;-2;0"
            dur="1.549657874267723s"
            repeatCount="indefinite"
            begin="13.053586924981573s"
          />
          
    <g>
      <path fill="#199f4b" transform="rotate(45 35.276 -40.341)" style="transform-box:fill-box;transform-origin:50% 50%" d="M12.078 11.565H35.76v23.682H12.078z"/>
      <path fill="#199f4b" transform="rotate(45 16.436 -46.664)" style="stroke-width:1;transform-origin:11.985px 11.728px" d="M6.052 5.795h11.866v11.866H6.052z"/>
      <circle cx="12.682" cy="-14.738" r="2.713" fill="#000" style="stroke-width:1;transform-origin:12.682px -14.738px"/>
      <circle cx="13.359" cy="-15.416" r="1.084" fill="#fff" style="stroke-width:1;transform-origin:12.682px -14.738px"/>
      <path d="m-.356-5.548 2.674 9.096h-5.346z" fill="#199f4b" style="stroke-width:1;transform-origin:-.353px -1px" transform="rotate(249.338)"/>
      <path d="M-.915-8.567 1.758.53h-5.346z" fill="#199f4b" style="stroke-width:1;transform-origin:-.912px -4.018px" transform="rotate(249.338)"/>
    </g>
    
        </g>
      </g>

      
      <text
        x="0"
        y="36"
        font-size="17"
        fill="#fff"
        font-family="monospace"
        text-anchor="middle"
        opacity="0.9"
      >
        Vim Script
      </text>
      
    </g>
  

    <g opacity="0">

      <animate
        attributeName="opacity"
        from="0"
        to="1"
        dur="1.5s"
        begin="17.098137067529024s"
        fill="freeze"
      />

      <animateMotion
        dur="45.626327270583715s"
        repeatCount="indefinite"
        begin="17.098137067529024s"
        calcMode="spline"
        keyTimes="0.0000;0.0833;0.1667;0.2500;0.3333;0.4167;0.5000;0.5833;0.6667;0.7500;0.8333;0.9167;1.0000"
        keySplines="0.2 0.1 0.8 0.9;0.2 0.1 0.8 0.9;0.2 0.1 0.8 0.9;0.2 0.1 0.8 0.9;0.2 0.1 0.8 0.9;0.2 0.1 0.8 0.9;0.2 0.1 0.8 0.9;0.2 0.1 0.8 0.9;0.2 0.1 0.8 0.9;0.2 0.1 0.8 0.9;0.2 0.1 0.8 0.9;0.2 0.1 0.8 0.9"
        path="M 680,98.03150605850142 C 653.6,102.6093826562727 626.4,78.45811690923925 600,81.95396122578032 C 534,92.92915209201341 466,115.64501079884947 400,115.15233679703769 C 334,104.70746238394358 266,107.88771601523246 200,87.95816273777571 C 173.6,98.58531366588838 146.4,90.9933474595641 120,87.95816273777571 C 146.4,89.20301875850541 173.6,103.32190449461628 200,120.93164964216412 C 266,101.57757763409755 334,72.24380776201146 400,69.59669591205316 C 466,75.50464753120589 534,115.3198252741823 600,124.80627030992963 C 626.4033,118.6067595839781 653.6067,113.30170027770276 680.01,98.03150605850142"
      />

      <g>
        <animateTransform
          attributeName="transform"
          type="scale"
          values="-0.9310534991122517 0.9310534991122517; -0.9310534991122517 0.9310534991122517; 0.9310534991122517 0.9310534991122517; 0.9310534991122517 0.9310534991122517; -0.9310534991122517 0.9310534991122517"
          keyTimes="0;0.5;0.5;1;1"
          calcMode="discrete"
          dur="45.626327270583715s"
          repeatCount="indefinite"
          begin="17.098137067529024s"
        />

        <g>
          <animateTransform
            attributeName="transform"
            type="rotate"
            values="0;2;0;-2;0"
            dur="2.237796782195801s"
            repeatCount="indefinite"
            begin="17.098137067529024s"
          />
          
    <g>
      <circle cx="7.071" cy="-6.202" r="1.772" fill="#000" style="stroke-width:1"/>
      <circle cx="7.324" cy="-6.616" r="0.8" fill="#fff" style="stroke-width:1"/>
      <path d="M -17.621 -3.973 C -7.621 -10.64 2.379 -10.64 12.379 -3.973 C 2.379 2.693 -7.621 2.693 -17.621 -3.973" fill="#8b8b8b" style="stroke-width:1"/>
      <path d="M -17.621 -5.495 L -12.621 3.505 L -12.621 -12.495 L -17.621 -5.495 Z" fill="#8b8b8b" style="stroke-width: 1; transform-origin: -15.121px -4.495px;" transform="matrix(-1, 0, 0, -1, -0.00000572, -0.00000286)"/>
      <circle cx="4.379" cy="-5.973" r="2" fill="#000" style="stroke-width:1"/>
      <circle cx="4.879" cy="-6.473" r="0.8" fill="#fff" style="stroke-width:1"/>
    </g>
  
        </g>
      </g>

      
      <text
        x="0"
        y="36"
        font-size="17"
        fill="#fff"
        font-family="monospace"
        text-anchor="middle"
        opacity="0.9"
      >
        MDX
      </text>
      
    </g>
  

    <g opacity="0">

      <animate
        attributeName="opacity"
        from="0"
        to="1"
        dur="1.5s"
        begin="20.940179530443856s"
        fill="freeze"
      />

      <animateMotion
        dur="43.69816680518852s"
        repeatCount="indefinite"
        begin="20.940179530443856s"
        calcMode="spline"
        keyTimes="0.0000;0.0833;0.1667;0.2500;0.3333;0.4167;0.5000;0.5833;0.6667;0.7500;0.8333;0.9167;1.0000"
        keySplines="0.2 0.1 0.8 0.9;0.2 0.1 0.8 0.9;0.2 0.1 0.8 0.9;0.2 0.1 0.8 0.9;0.2 0.1 0.8 0.9;0.2 0.1 0.8 0.9;0.2 0.1 0.8 0.9;0.2 0.1 0.8 0.9;0.2 0.1 0.8 0.9;0.2 0.1 0.8 0.9;0.2 0.1 0.8 0.9;0.2 0.1 0.8 0.9"
        path="M 120,271.0738040205076 C 146.4,285.64443314812115 173.6,300.24390698398753 200,300 C 266,290.6024349106592 334,306.63386924274965 400,300 C 466,287.6417311136602 534,277.68259987764174 600,288.04604509629917 C 626.4,288.231253507162 653.6,278.30234409115417 680,288.04604509629917 C 653.6,280.651838835795 626.4,303.0395176036279 600,295.3663743822147 C 534,270.5175652568911 466,274.56186274757255 400,246.77789097023285 C 334,261.80667013161695 266,287.65814541899556 200,293.62320459034504 C 173.5967,295.5711225039411 146.3933,277.7512712670271 119.99,271.0738040205076"
      />

      <g>
        <animateTransform
          attributeName="transform"
          type="scale"
          values="0.9240819639321799 0.9240819639321799; 0.9240819639321799 0.9240819639321799; -0.9240819639321799 0.9240819639321799; -0.9240819639321799 0.9240819639321799; 0.9240819639321799 0.9240819639321799"
          keyTimes="0;0.5;0.5;1;1"
          calcMode="discrete"
          dur="43.69816680518852s"
          repeatCount="indefinite"
          begin="20.940179530443856s"
        />

        <g>
          <animateTransform
            attributeName="transform"
            type="rotate"
            values="0;2;0;-2;0"
            dur="2.2954017667761946s"
            repeatCount="indefinite"
            begin="20.940179530443856s"
          />
          
    <g>
      <circle cx="19.924" cy="-8.125" r="2" fill="#000" style="stroke-width:1"/>
      <circle cx="20.424" cy="-8.625" r=".8" fill="#fff" style="stroke-width:1"/>
      <path fill="#3178c6" style="stroke-width:1" d="m24.705-4.661-12-11h-23v22h23z"/>
      <path fill="#3178c6" opacity=".9" style="stroke-width:1" d="m-8.536-4.661-9-7v14z"/>
      <path stroke="#fff" stroke-width=".8" style="stroke-width:.8" d="M-3.296-15.661v22m10-22v22"/>
      <circle cx="17.704" cy="-7.661" r="2" fill="#000" style="stroke-width:1"/>
      <circle cx="18.204" cy="-8.161" r=".8" fill="#fff" style="stroke-width:1"/>
      <path fill="#3178c6" style="stroke-width:1" d="M6.104 6.248.58 1.951v8.594z"/>
    </g>
  
        </g>
      </g>

      
      <text
        x="0"
        y="36"
        font-size="17"
        fill="#fff"
        font-family="monospace"
        text-anchor="middle"
        opacity="0.9"
      >
        TypeScript
      </text>
      
    </g>
  

    <g opacity="0">

      <animate
        attributeName="opacity"
        from="0"
        to="1"
        dur="1.5s"
        begin="21.816526127393445s"
        fill="freeze"
      />

      <animateMotion
        dur="51.80998086623731s"
        repeatCount="indefinite"
        begin="21.816526127393445s"
        calcMode="spline"
        keyTimes="0.0000;0.0833;0.1667;0.2500;0.3333;0.4167;0.5000;0.5833;0.6667;0.7500;0.8333;0.9167;1.0000"
        keySplines="0.2 0.1 0.8 0.9;0.2 0.1 0.8 0.9;0.2 0.1 0.8 0.9;0.2 0.1 0.8 0.9;0.2 0.1 0.8 0.9;0.2 0.1 0.8 0.9;0.2 0.1 0.8 0.9;0.2 0.1 0.8 0.9;0.2 0.1 0.8 0.9;0.2 0.1 0.8 0.9;0.2 0.1 0.8 0.9;0.2 0.1 0.8 0.9"
        path="M 680,202.0686416181075 C 653.6,204.31025429697777 626.4,178.87164427107106 600,168.45827903261937 C 534,192.87751244210708 466,224.25946506673446 400,233.56853498404828 C 334,222.27103461281828 266,199.334631153499 200,178.76252778466332 C 173.6,186.86448665995158 146.4,192.96233738509946 120,178.76252778466332 C 146.4,164.1939390843275 173.6,161.33061382012212 200,134.7106607723778 C 266,180.05508460162514 334,212.39102902606868 400,244.5284422400249 C 466,234.7731680965388 534,251.64772126849226 600,238.15712718800307 C 626.4033,240.32873094684854 653.6067,204.74885850085948 680.01,202.0686416181075"
      />

      <g>
        <animateTransform
          attributeName="transform"
          type="scale"
          values="-0.8501433735551321 0.8501433735551321; -0.8501433735551321 0.8501433735551321; 0.8501433735551321 0.8501433735551321; 0.8501433735551321 0.8501433735551321; -0.8501433735551321 0.8501433735551321"
          keyTimes="0;0.5;0.5;1;1"
          calcMode="discrete"
          dur="51.80998086623731s"
          repeatCount="indefinite"
          begin="21.816526127393445s"
        />

        <g>
          <animateTransform
            attributeName="transform"
            type="rotate"
            values="0;2;0;-2;0"
            dur="2.1324027641603607s"
            repeatCount="indefinite"
            begin="21.816526127393445s"
          />
          
    <g>
      <circle cx="3.699" cy="-10.014" fill="#000080" r="16.691"/>
      <circle cx="11.439" cy="-17.908" fill="#fff" style="stroke-width:1" r="4.354"/>
      <circle cx="13.946" cy="-14.481" fill="#000" style="stroke-width:1" r="1.353"/>
      <circle cx="14.378" cy="-14.31" fill="#fff" style="stroke-width:1" r=".6"/>
      <path d="m-12.748-16.448 6.254 12.505H-19z" fill="#000080" style="transform-box:fill-box;transform-origin:50% 50%" transform="rotate(90)"/>
      <path d="m5.969-5.528 3.346 6.692H2.621z" fill="#fff" style="stroke-width:1;transform-origin:5.969px -2.182px" transform="rotate(90)"/>
    </g>
  
        </g>
      </g>

      
      <text
        x="0"
        y="36"
        font-size="17"
        fill="#fff"
        font-family="monospace"
        text-anchor="middle"
        opacity="0.9"
      >
        Lua
      </text>
      
    </g>
  

        

        
    <rect x="0" y="0" width="800" height="400" fill="none" stroke="#ffc800" stroke-width="8" rx="14" ry="14" />
    <rect x="4" y="4" width="792" height="392" fill="none" stroke="#ffe61e" stroke-width="2" opacity="0.3" rx="10" ry="10" />
    <rect x="0" y="0" width="800" height="15" fill="url(#reflectionGrad)" />
  
      </g>
    </svg>
  