<svg xmlns="http://www.w3.org/2000/svg" width="400" height="400" viewBox="-22 -24 41 41" fill="none">
<path d="M12.352-8.287c7.629.863 9.732 8.146 8.265 10.479H4.09c-2.768-3.189.7-11.335 8.262-10.479" fill="#db5855" style="stroke-width:1;transform-origin:12.356px -3.048px" transform="rotate(90)"/>
      <path d="M7.096-10.529c1.94.165 2.799 1.709 2.03 2.573H5.067c-.68-.783.167-2.732 2.029-2.573" fill="#db5855" style="stroke-width:1;transform-origin:7.097px -9.243px" transform="rotate(-90)"/>
      <path d="M7.003-7.114c1.94.165 2.799 1.709 2.03 2.573H4.974c-.68-.783.167-2.732 2.029-2.573" fill="#db5855" style="stroke-width:1;transform-origin:7.004px -5.828px" transform="rotate(-90)"/>
      <path d="M7.003-4.347c1.94.165 2.799 1.709 2.03 2.573H4.974c-.68-.783.167-2.732 2.029-2.573" fill="#db5855" style="stroke-width:1;transform-origin:7.004px -3.061px" transform="rotate(-90)"/>
      <path d="M6.772-.772c1.94.165 2.799 1.709 2.03 2.573H4.743c-.68-.783.167-2.732 2.029-2.573" fill="#db5855" style="stroke-width:1;transform-origin:6.773px .514px" transform="rotate(-90)"/>
      <path d="M6.772 1.707c1.94.165 2.799 1.709 2.03 2.573H4.743c-.68-.783.167-2.732 2.029-2.573" fill="#db5855" style="stroke-width:1;transform-origin:6.773px 2.993px" transform="rotate(-90)"/>
      <path d="M6.137-18.925c10.522.495 24.18-1.018 24.874 4.739-5.773-4.647-24.28-2.354-31.401-3.802-.202-.584-.122-.91-.13-1.175-.038-1.069 1.499-.005 6.657.238" fill="#db5855" style="stroke-width:1;transform-origin:6.143px -13.686px" opacity=".8" transform="rotate(183.247)"/>
      <path d="M4.842 8.323c10.522-.495 24.18 1.018 24.874-4.739-5.773 4.647-24.28 2.354-31.401 3.802-.202.584-.122.91-.13 1.175-.038 1.069 1.499.005 6.657-.238" fill="#db5855" style="stroke-width:1;transform-origin:4.848px 3.084px" opacity=".8" transform="scale(-1)"/>
      <path d="M4.398-7.41c-8.481-.433-19.319-2.725-20.33 1.839 4.998-3.272 19.665.028 25.493-.573.208-.452.169-.72.197-.932.116-.855-1.202-.122-5.36-.334" fill="#db5855" style="stroke-width:1;transform-origin:3.98px -3.207px" opacity=".8"/>
      <path d="M2.138-3.052c-7.746-.113-17.265 1.144-19.196-2.591 5.334 2.91 18.174 1.051 23.693 1.852.29.376.313.589.386.761.294.697-1.085.034-4.883-.022" fill="#db5855" style="stroke-width:1;transform-origin:.835px -6.463px" opacity=".8"/>
      <path d="M4.9.312C-2.846.425-12.365-.832-14.296 2.903-8.962-.007 3.878 1.852 9.397 1.051c.29-.376.313-.589.386-.761.294-.697-1.085-.034-4.883.022" fill="#db5855" style="stroke-width:1;transform-origin:3.597px 3.723px" opacity=".8"/>
      <path d="M10.435-4.487C2.8-5.802-6.325-8.79-8.91-5.474c5.778-1.878 18.057 2.313 23.629 2.541.354-.316.416-.521.519-.677.418-.631-1.06-.233-4.803-.877" fill="#db5855" style="stroke-width:1;transform-origin:8.526px -1.374px" opacity=".8" transform="rotate(-2.696)"/>
      <path d="M10.135 2.138C2.5 3.453-6.625 6.441-9.21 3.125-3.432 5.003 8.847.812 14.419.584c.354.316.416.521.519.677.418.631-1.06.233-4.803.877" fill="#db5855" style="stroke-width:1;transform-origin:8.226px -.975px" opacity=".8" transform="rotate(2.696)"/>
</svg>