<svg xmlns="http://www.w3.org/2000/svg" width="400" height="400" viewBox="-24 -32 62 50" fill="none">
<path d="M28.871-3.415 5.269-.882l-7.222 4.693-22.58-2.71v-9.032l22.58-2.71 7.232 5.307z" fill="#f34b7d" style="stroke-width:1;transform-box:fill-box;transform-origin:50% 50%" transform="scale(-1)"/>
      <path d="m37.317-3.415-10.872-8.451V5.036z" fill="#f34b7d" style="stroke-width:1;transform-origin:31.881px -3.415px"/>
      <circle cx="-11.476" cy="-5.221" r="2.146" fill="#000" style="stroke-width:1" transform="scale(-1 1)"/>
      <circle cx="-11.025" cy="-5.673" r=".723" fill="#fff" style="stroke-width:1" transform="scale(-1 1)"/>
      <path d="m-10.033-2.437 6.264 11.644 6.863-.835 4.118-.5-10.492-6.05-.189-8.01" fill="#f34b7d" opacity=".8" style="stroke-width:1;paint-order:fill;stroke-miterlimit:12.2;stroke-linejoin:bevel;transform-origin:-1.411px 1.509px" transform="matrix(0 -1.00001 .99999 0 0 0)"/>
      <path d="m-7.226-2.323-2.309-3.059 5.48-10.188 6.864.834 4.118.501-10.492 6.048-.189 8.012" fill="#f34b7d" opacity=".8" style="stroke-width:1;paint-order:fill;stroke-miterlimit:12.2;stroke-linejoin:bevel;transform-origin:-1.304px -7.873px" transform="rotate(90)scale(1.00001 .99999)"/>
      <path d="m-9.115-3.907-2.102-4.688-2.028 4.935L-11.31.952z" fill="#f34b7d" style="stroke-width:1;transform-origin:-5.834px .472px"/>
      <path d="m-16.809-3.629-2.102-4.689-2.028 4.936 1.935 4.61z" fill="#f34b7d" style="stroke-width:1;transform-origin:-13.528px .75px"/>
</svg>