<svg xmlns="http://www.w3.org/2000/svg" width="400" height="400" viewBox="-21 -37 43 55" fill="none">
<path d="M8.458-.134C7.801 18.901-1.572 18.198-7.767 23.84l-.205-44.372C.836-21.006 9.07-17.864 8.458-.134" fill="#384d54" style="stroke-width:1;transform-origin:5.004px .633px" transform="rotate(90)"/>
      <path d="M-18.239-7.785c4.187-2.203.12-8.854-1.081-8.686 1.734 6.333 1.075 8.64 1.081 8.686" fill="#384d54" style="stroke-width:1;transform-origin:-16.53px -11.356px" transform="rotate(111.498)"/>
      <path d="M-20.82-12.005c6.241-3.558 1.327-11.47-.591-11.2-5.034 3.61.348 10.881.591 11.2" fill="#384d54" style="stroke-width:1;transform-origin:-18.091px -17.708px" transform="rotate(201.498)"/>
      <path d="M-21.992-23.178c6.241 3.558 1.327 11.469-.591 11.199-5.034-3.609.348-10.88.591-11.199" fill="#384d54" style="stroke-width:1;transform-origin:-19.263px -17.475px" transform="rotate(-70.938)"/>
      <circle cx="12.223" cy="-3.723" r="1.283" fill="#fff" style="stroke-width:1;transform-origin:12.223px -3.723px"/>
      <circle cx="12.226" cy="-3.725" r=".886" fill="#000" style="stroke-width:1;transform-origin:11.732px -3.233px"/>
      <path fill="#384d54" d="M19.192-19.221H-7.011v8.147h26.203z"/>
      <path style="stroke-width:1" fill="#384d54" transform="scale(-1 1)" d="M-6.438-26.143H7.023v8.458H-6.438z"/>
</svg>