<svg xmlns="http://www.w3.org/2000/svg" width="400" height="400" viewBox="-17 -40 34 65" fill="none">
<path d="M-26.995-3.623C-7.556-8.093 2.179-18.398 20.683-15.58 35.945-12.038.494 1.453-26.995-3.623" fill="#B83998" style="stroke-width:1;transform-origin:-1.318px -9.278px" transform="rotate(17.128)"/>
      <path d="M28.038-5.498c1.51-4.753-1.008-6.311-3.04-8.018l-1.579 4.374-1.26 3.502-1.578 4.372c3.124.562 5.839-.332 7.457-4.23" fill="#B83998" style="stroke-width:1;transform-box:fill-box;transform-origin:50% 50%" transform="rotate(251.012)"/>
      <path d="M-22.223-9.355c1.57-4.942-4.729-7.405-6.842-9.178l.558 4.969c.241 1.037.681 4.09-1.35 5.446l-3.211 1.873c2.741.391 8.508 2.04 12.22-1.238" fill="#B83998" style="stroke-width:1;transform-origin:-26.432px -10.757px" transform="rotate(-20.984)"/>
      <path d="M27.573-5.167c1.594 5.021-1.066 6.666-3.209 8.471L23.109-.634c.883-.405 2.391.06 1.292-3.679-1.011-2.752-2.247-1.708-3.026-1.501l-1.352-3.46c3.301-.593 5.844-.007 7.55 4.107" fill="#B83998" style="stroke-width:1;transform-origin:23.88px -3.248px" transform="rotate(123.133)"/>
      <circle cx="21.023" cy="-6.023" r="1.504" fill="#000" style="stroke-width:1"/>
      <circle cx="21.399" cy="-6.398" r=".6" fill="#fff" style="stroke-width:1"/>
      <path d="M11.464-.894c1-3.15-.666-4.181-2.012-5.312l-1.046 2.9L7.57-.989 6.526 1.907c2.069.371 3.867-.22 4.938-2.801" fill="#B83998" style="stroke-width:1;transform-origin:9.147px -2.098px" transform="rotate(23.437)"/>
      <path d="M-3.372-5.39c2.86-3.15-1.905-4.181-5.753-5.313l-2.993 2.899-2.387 2.318-2.988 2.895c5.915.371 11.057-.219 14.121-2.799" fill="#B83998" style="stroke-width:1;transform-origin:-9.997px -6.596px" transform="rotate(22.064)"/>
</svg>