<svg xmlns="http://www.w3.org/2000/svg" width="400" height="400" viewBox="-19.5 -19 40 40" fill="none">
<rect x="-1.845" y="1.321" width="5.47" height="2.536" rx="4.931" ry="4.931" style="stroke-width:1;transform-box:fill-box;transform-origin:50% 50%;fill:#e0cfbb" transform="rotate(120 2.882 5.07)"/>
      <rect x="-1.845" y="1.321" width="5.47" height="2.536" rx="4.931" ry="4.931" style="stroke-width:1;transform-origin:.89px 2.589px;fill:#e0cfbb" transform="rotate(120 1.585 3.861)"/>
      <rect x="-1.845" y="1.321" width="5.47" height="2.536" rx="4.931" ry="4.931" style="stroke-width:1;transform-origin:.89px 2.589px;fill:#e0cfbb" transform="rotate(120 -4.344 .863)"/>
      <rect x="-1.845" y="1.321" width="5.47" height="2.536" rx="4.931" ry="4.931" style="stroke-width:1;transform-origin:.89px 2.589px;fill:#e0cfbb" transform="rotate(120 -5.517 -.381)"/>
      <rect x="-1.845" y="1.321" width="5.47" height="2.536" rx="4.931" ry="4.931" style="stroke-width:1;transform-origin:.89px 2.589px" transform="rotate(120 8.396 -1.986)" fill="#00ADD8"/>
      <rect x="-1.051" y=".753" width="3.117" height="1.445" rx="4.931" ry="4.931" style="stroke-width:1;transform-origin:.507px 1.475px" transform="rotate(120 8.403 -1.366)" fill="fff"/>
      <rect x="-13.502" y="-7.688" width="32.308" height="14.981" rx="4.931" ry="4.931" fill="#00ADD8"/>
      <path style="fill:#fff;transform-box:fill-box;transform-origin:50% 50%" transform="rotate(15 -3.926 -8.464)" d="M19.342 1.913h1.717v2.535h-1.717z"/>
      <path d="m-10.774.047-8-5v10z" fill="#00ADD8" opacity=".9" style="stroke-width:1"/>
      <circle cx="14.772" cy="-1.697" r="2.5" fill="#fff" style="stroke-width:1"/>
      <circle cx="15.757" cy="-1.712" r="1" fill="#000" style="stroke-width:1"/>
      <circle cx="29.676" cy="10.981" r="1.759" transform="matrix(1.01753 0 0 .93684 -12.218 -7.743)" style="fill:#e0cfbb"/>
</svg>