<svg xmlns="http://www.w3.org/2000/svg" width="400" height="400" viewBox="-18 -23 40 40" fill="none">
      <path d="M-7.965-3.648C.737-1.647 5.361 4.838 13.644 3.576c6.832-1.585 9.057-3.891 6.391-7.224q3.999-5-6-8-14-2-22 8" fill="#5e5086" style="stroke-width:1;transform-box:fill-box;transform-origin:50% 50%" transform="scale(-1)"/>
      <path d="M-4.981-4.596q-6-8-12-14v10l7 4-7 4v10q6-6 12-14" fill="#5e5086" style="stroke-width:1"/>
      <circle cx="13.71" cy="-2.432" r="2" fill="#000" style="stroke-width:1"/>
      <circle cx="14.21" cy="-2.932" r=".8" fill="#fff" style="stroke-width:1"/>
      <path d="M.06 3.311q-1.452-4.739-3.242-8.548L-4.864-.574l2.592 3.044-3.938.689-1.682 4.663Q-4.086 6.033.06 3.311" fill="#5e5086" style="stroke-width:1;transform-origin:-2.738px 2.302px"/>
      <path d="M2.746 3.752Q1.294-.987-.496-4.796L-2.178-.133.414 2.911l-3.938.689-1.682 4.663q3.807-1.789 7.952-4.511" fill="#5e5086" style="stroke-width:1;transform-origin:-.052px 2.743px"/>
</svg>