<svg xmlns="http://www.w3.org/2000/svg" width="400" height="400" viewBox="-23 -32 50 50" fill="none">
<path d="M-9.651-25.643s3.058 2.687 6.095 4.135c3.158 1.508 6.329 1.762 8.329.82 2.551-1.205 3.922 7.353 3.922 7.353 1.088-2.364.634-4.404.3-5.763-.312-1.31-1.18-2.235-2.165-2.666-1.107-.484-2.382-.377-4.092-.024-1.509.308-4.123-.183-6.105-1.554-2.406-1.652-6.284-2.301-6.284-2.301" fill="#fc4b1e" style="stroke-width:1;transform-origin:-112.166px 12.934px"/>
      <path d="M8.021-14.142s-1.985-4.994-5.072-5.303c-3.218-.323-6.494.448-8.598 1.89-2.689 1.843-3.799-5.159-3.799-5.159-1.219 2.391-.813 4.023-.526 5.098.275 1.04 1.152 1.573 2.156 1.64 1.125.077 2.455-.416 4.243-1.257 1.567-.739 4.252-1.13 6.264-.56 2.427.685 5.332 3.651 5.332 3.651" fill="#fc4b1e" style="stroke-width:1;transform-origin:-112.069px 12.185px"/>
      <circle cx="15.124" cy="-12.124" r="2.2" fill="#000" style="stroke-width:1"/>
      <circle cx="15.624" cy="-12.624" r=".9" fill="#fff" style="stroke-width:1"/>
      <path d="M-13.67-6.659c5.33-8.666 12.67-12 22-10 8.666 2 7.986 10 14.841 10 5.077 0-6.175 8-14.841 10-9.33 2-16.67-1.333-22-10" fill="#b07219" style="stroke-width:1"/>
      <path d="m-10.79-6.659-10-7 3.27 6.837-3.27 7.163z" fill="#b07219" style="stroke-width:1"/>
      <path d="M-5.26-12.539q2.355 3.528 0 5.88 2.355 2.352 0 5.88m4.32-13.026q3.18 3.969 0 7.146 3.18 3.177 0 7.146" stroke="#000" stroke-width=".8" opacity=".3" style="stroke-width:.8" fill="#b07219"/>
      <circle cx="11.968" cy="-11.513" r="2.2" fill="#000" style="stroke-width:1"/>
      <circle cx="12.468" cy="-12.013" r=".9" fill="#fff" style="stroke-width:1"/>
      <path d="M7.667 3.389 3.133-.439l-.908 3.545L1.19 6.813z" fill="#b07219" style="stroke-width:1;transform-origin:-107.038px 36.286px"/>
</svg>