<svg xmlns="http://www.w3.org/2000/svg" width="400" height="400" viewBox="-20 -32 45 39" fill="none" version="1.1" xmlns:xlink="http://www.w3.org/1999/xlink"><path d="m-10.72 -11.416 -8 -5v10z" fill="#000" opacity=".8" style="stroke-width:1"/><path cx="2.66" cy="-11.416" rx="16" ry="14" fill="#f1e05a" style="stroke-width:1" d="M18.66 -11.416A16 14 0 0 1 2.66 2.584A16 14 0 0 1 -13.34 -11.416A16 14 0 0 1 18.66 -11.416z"/><path stroke="#f1e05a" stroke-width="2" stroke-linecap="round" style="stroke-width:2" d="M2.66 -25.416v-7m10 11 5 -5m-5 25 5 5m-14.995 -1 -0.01 7M-8.007 -1.026l-4 5m4.055 -25.891 -4 -5"/><path cx="12.66" cy="-14.416" r="2.5" fill="#000" style="stroke-width:1" d="M15.16 -14.416A2.5 2.5 0 0 1 12.66 -11.916A2.5 2.5 0 0 1 10.16 -14.416A2.5 2.5 0 0 1 15.16 -14.416z"/><path cx="13.16" cy="-14.916" r="1" fill="#fff" style="stroke-width:1" d="M14.16 -14.916A1 1 0 0 1 13.16 -13.916A1 1 0 0 1 12.16 -14.916A1 1 0 0 1 14.16 -14.916z"/><path d="m3.876 -1.249 -4.202 -3.72 -0.761 5.562z" fill="#000" opacity=".8" style="stroke-width:1;transform-origin:1.585px -1.719px"/><path style="fill:none;stroke:#000;stroke-width:1" d="M14.648 -17.455c-3.146 -1.45 -5.246 -0.45 -5.821 3.144"/><path stroke="#f1e05a" stroke-width="2" stroke-linecap="round" style="stroke-width:2;transform-origin:8.58px -22.373px" d="m7.347 -21.906 2.466 -6.627"/><path stroke="#f1e05a" stroke-width="2" stroke-linecap="round" style="stroke-width:2;transform-origin:8.486px 5.278px" d="M9.719 5.745 7.253 -0.882"/><path stroke="#f1e05a" stroke-width="2" stroke-linecap="round" style="stroke-width:2;transform-origin:-2.93px -22.351px" d="m-1.697 -21.884 -2.466 -6.627"/><path stroke="#f1e05a" stroke-width="2" stroke-linecap="round" style="stroke-width:2;transform-origin:-3.229px 5.241px" d="m-4.462 5.708 2.466 -6.627"/></svg>