<svg xmlns="http://www.w3.org/2000/svg" width="400" height="400" viewBox="-19 -40 34 55" fill="none">
<circle cx="17.634" cy="-14.334" r="2.196" fill="#000" style="stroke-width:1;transform-origin:17.634px -14.334px"/>
      <circle cx="18.182" cy="-14.882" r=".877" fill="#fff" style="stroke-width:1;transform-origin:17.634px -14.334px"/>
      <path d="M-28.421-24.216c1.713 4.024 11.836 4.711 13.779-.024.347 7.12-13.522 7.83-13.779.024" fill="#DA5B0B" style="stroke-width:1;transform-origin:-21.527px -21.433px" transform="rotate(-19.203)"/>
      <path d="M-20.97-21.195c5.46 12.85 37.793 15.044 43.998-.077 1.097 22.732-43.179 24.999-43.998.077" fill="#DA5B0B"/>
      <circle cx="-.092" cy="-2.954" r="2.196" fill="gray"/>
      <path d="M-1.736-5.515c1.712 4.026 11.838 4.713 13.781-.024.344 7.12-13.523 7.83-13.781.024" fill="#DA5B0B" style="stroke-width:1;transform-box:fill-box;transform-origin:50% 50%" transform="rotate(-25.234)"/>
      <circle cx="5.024" cy="1.115" r="2.196" fill="gray" style="stroke-width:1"/>
      <path d="M2.747-4.13C4.461-.106 14.585.583 16.528-4.154c.345 7.119-13.522 7.83-13.781.024" fill="#DA5B0B" style="stroke-width:1;transform-origin:9.64px -1.349px" transform="rotate(-55.218)"/>
      <circle cx="16.279" cy="-13.012" r="2.196" fill="#000" style="stroke-width:1;transform-origin:16.279px -13.012px"/>
      <circle cx="16.827" cy="-13.561" r=".877" fill="#fff" style="stroke-width:1;transform-origin:16.279px -13.012px"/>
</svg>