<svg xmlns="http://www.w3.org/2000/svg" width="400" height="400" viewBox="-17 -42 36 68" fill="none">
<path d="M27.335-14.016c-.117-.324 2.159.385 2.736-.613.296-.511 2.438 14.025 3.114 16.248.171.56-1.497 1.08-1.837.536-.413-.665.27-4.439-4.013-16.171" fill="#7e7eff" style="stroke-width:1;transform-origin:28.441px -9.467px" transform="rotate(102.879)"/>
      <path d="M-5.318-2.479c29.755 8.574 40.175-2.01 8.674-9.712-31.499-7.701-33.681 2.505-8.674 9.712" fill="#7e7eff" style="stroke-width:1;transform-origin:-3.953px -12.2px" transform="rotate(-12.879)"/>
      <circle cx="16.487" cy="-8.235" r="2.77" fill="#000" style="stroke-width:1"/>
      <circle cx="17.069" cy="-8.819" r=".934" fill="#fff" style="stroke-width:1"/>
      <path d="M-21.559-13.057c4.816-.902 6.032 12.147 5.057 14.932-3.291-3.312-7.697-.788-8.952.449-1.275-9.06 1.364-14.907 3.895-15.381" fill="#7e7eff" style="stroke-width:1;transform-origin:-20.517px -8px" transform="rotate(93.097)"/>
      <path d="M-5.564-5.806C-2.542-7.754.178-17.387-.685-19.737c-2.918 2.791-6.819.664-7.931-.38-.278 6.942 1.897 15.056 3.052 14.311" fill="#7e7eff" style="stroke-width:1;transform-origin:-4.242px -11.414px" transform="rotate(-56.004)"/>
</svg>