<svg xmlns="http://www.w3.org/2000/svg" width="400" height="400" viewBox="-24 -32 47 47" fill="none">
<ellipse cx="5.41" cy="-8.161" rx="13.453" ry="8.368" fill="#0298c3" style="stroke-width:1"/>
      <path d="M-19.018-24.531C-8.298-19.007-4.75-9.318-4.982-5.787-6.913-.242-18.317-.034-21.49-.527c5.089-18.486 2.356-25.198 2.472-24.004" fill="#0298c3" style="stroke-width:1;transform-box:fill-box;transform-origin:50% 50%" transform="rotate(-21.498)"/>
      <ellipse cx="12.667" cy="-7.18" rx="5.034" ry="3.13" fill="#0298c3" style="stroke-width:1;transform-box:fill-box;transform-origin:50% 50%" transform="rotate(17.892 -3.944 13.88)"/>
      <ellipse cx="12.667" cy="-7.18" rx="3.491" ry="1.434" fill="#0298c3" style="stroke-width:1;transform-origin:12.667px -7.18px" transform="rotate(32.55 -5.32 7.144)"/>
      <ellipse cx="12.667" cy="-7.18" rx="3.491" ry="1.434" fill="#0298c3" style="stroke-width:1;transform-origin:12.667px -7.18px" transform="rotate(67.901 4.04 -5.198)"/>
      <circle cx="6.834" cy="-11.35" r="2.006" fill="#000" style="stroke-width:1;transform-origin:6.834px -11.35px" transform="matrix(0 1 1 0 6.561 .684)"/>
      <circle cx="6.179" cy="-11.874" r=".819" fill="#fff" style="stroke-width:1;transform-origin:5.723px -11.419px" transform="matrix(0 1 1 0 8.722 .067)"/>
      <ellipse cx="12.667" cy="-7.18" rx="5.427" ry="5.289" fill="#0298c3" style="stroke-width:1;transform-origin:12.667px -7.18px" transform="rotate(92.66 -3.853 -9.527)skewX(.617)"/>
</svg>