<svg xmlns="http://www.w3.org/2000/svg" width="400" height="400" viewBox="-13 -35 28 55" fill="none">
<path fill="#751b26" transform="matrix(-1 0 -.29386 1 4.096 -32.56)" style="transform-origin:5.993px 26.337px" d="M-.256 14.195h12.497v24.284H-.256z"/>
      <path fill="#751b26" transform="matrix(-1 0 -.29386 1 -10.215 -32.567)" style="stroke-width:1;transform-origin:5.993px 26.337px" d="M-.256 14.195h12.497v24.284H-.256z"/>
      <path fill="#c22d40" transform="matrix(1 0 .29386 1 11.205 -32.604)" style="stroke-width:1;transform-origin:5.993px 26.337px" d="M-.256 14.195h12.497v24.284H-.256z"/>
      <path fill="#c22d40" transform="matrix(1 0 .29386 1 -3.05 -32.561)" style="stroke-width:1;transform-origin:5.993px 26.337px" d="M-.256 14.195h12.497v24.284H-.256z"/>
      <path fill="#c22d40" transform="matrix(1 0 .29386 1 -17.358 -32.567)" style="stroke-width:1;transform-origin:5.993px 26.337px" d="M-.256 14.195h12.497v24.284H-.256z"/>
      <path d="m-12.491-31.42 4.485 8.97h-8.97z" fill="#c22d40" transform="rotate(90 -9.426 .626)" style="transform-box:fill-box;transform-origin:50% 50%"/>
      <circle cx="22.182" cy="2.367" r="2.2" fill="#000" style="stroke-width:1"/>
      <circle cx="22.682" cy="1.867" r=".9" fill="#fff" style="stroke-width:1"/>
      <path d="m-12.491-31.42 4.485 8.97h-8.97z" fill="#c22d40" transform="rotate(90 -6.822 25.7)" style="stroke-width:1;transform-origin:-12.491px -26.935px"/>
</svg>