<svg xmlns="http://www.w3.org/2000/svg" width="400" height="400" viewBox="-14 -45 41 58" fill="none">
<circle cx="8.354" cy="-4.962" fill="#64b033" r="7.518"/>
      <circle cx="-2.988" cy="-19.729" fill="#89e051" r="17.616"/>
      <path d="M-10.706-3.869q-4.984-2.016 0-4.033L3.06-13.47q4.984-2.017 4.984 2.016v11.14q0 4.032-4.984 2.015Z" fill="#89e051"/>
      <path d="m9.65-.47 2.707-.457C12.3 1.645 33.328 2.715 33.382.144c.548 3.83-22.93 4.957-23.732-.614m3.232-7.358 2.073.171c-.209-1.939 15.607-4.11 15.816-2.17.165-2.93-17.645-2.262-17.889 1.999" fill="#64b033"/>
      <path d="m9.905-2.127.073-1.6c.639.945 18.736 1.988 21.288.812C28.16.042 14.073-.589 9.905-2.127m.246-3.835 1.959-.702c.299 1.928 16.138-.069 15.838-1.997.918 2.787-16.458 6.751-17.797 2.699" fill="#64b033"/>
      <circle cx="11.497" cy="-4.812" r="2.044" fill="#000"/>
      <circle cx="12.008" cy="-5.323" r=".818" fill="#fff"/>
      <path d="m-14.295-27.449 9.022 6.316-8.571 6.654m9.839-.148 11.977-.037" fill="#89e051" stroke="#000"/>
</svg>