<svg xmlns="http://www.w3.org/2000/svg" width="400" height="400" viewBox="-21 -18 38 28" fill="none">
<path d="m-5.58-14.713 5.019 3.315-1.293.712-.893.47-1.15.733-1.324.776z" fill="#34495e" style="stroke-width:1;transform-origin:-1.791px -5.738px"/>
      <path d="m-3.241-15.363 5.02 3.314-1.293.712-.893.471-1.15.733-1.324.776z" fill="#34495e" style="stroke-width:1;transform-origin:-1.791px -5.737px"/>
      <path d="m-.173-15.551 4.635 3.833-1.361.57-.938.371-1.223.606-1.399.63z" fill="#34495e" style="stroke-width:1;transform-origin:-1.791px -5.738px"/>
      <path d="m2.222-15.948 4.636 3.833-1.361.569-.938.373-1.222.606-1.4.63z" fill="#34495e" style="stroke-width:1;transform-origin:-1.791px -5.738px"/>
      <path d="m-7.289-2.771 4.636 3.833-1.361.568-.938.373-1.222.606-1.4.63z" fill="#34495e" style="stroke-width:1;transform-origin:-1.791px -5.737px"/>
      <path d="m5.473-15.978 2.69 5.38-1.476-.03-1.009-.039-1.362.06-1.535.009z" fill="#34495e" style="stroke-width:1;transform-origin:-1.79px -5.738px"/>
      <path d="m7.824-15.371 2.69 5.38-1.475-.03-1.009-.039-1.362.06-1.535.009z" fill="#34495e" style="stroke-width:1;transform-origin:-1.79px -5.738px"/>
      <path d="m10.575-14.001 2.098 5.638-1.464-.187-.998-.148-1.361-.086-1.527-.155z" fill="#34495e" style="stroke-width:1;transform-origin:-1.79px -5.738px"/>
      <path d="m12.847-13.146 2.099 5.637-1.463-.188-1-.146-1.36-.086-1.528-.154z" fill="#34495e" style="stroke-width:1;transform-origin:-1.79px -5.738px"/>
      <ellipse cx="3.009" cy="-4.416" rx="12.862" ry="8.268" fill="#41b883" style="stroke-width:1;transform-origin:-1.791px -5.737px"/>
      <path d="m-10.956-4-8.484-4.241.047 2.326L-15.195-4l-4.23 1.825-.015 2.417z" fill="#34495e" style="stroke-width:1;transform-origin:-1.791px -5.737px"/>
      <circle cx="9.671" cy="-4.547" r="2.239" fill="#000" style="stroke-width:1;transform-origin:-1.791px -5.737px"/>
      <circle cx="10.231" cy="-5.107" r=".896" fill="#fff" style="stroke-width:1;transform-origin:-1.791px -5.737px"/>
      <path d="m-6.018-4.005-13.434-6.717.008 2.578 8.234 4.139-8.221 3.952-.021 2.765z" fill="#41b883" style="stroke-width:1;transform-origin:-1.791px -5.737px"/>
      <path d="m.616 4.503 5.02-3.315L4.343.476 1.959 2.174l.34-2.901-1.324-.776z" fill="#34495e" style="stroke-width:1;transform-origin:-1.791px -5.737px"/>
</svg>